<svg width="465" height="32" viewBox="0 0 465 32" fill="none" xmlns="http://www.w3.org/2000/svg">
<rect width="465" height="32" rx="5" fill="#FFC24A"/>
<path d="M184.18 10.228V20H182.22V10.228H184.18ZM190.414 12.132C191.338 12.132 192.085 12.426 192.654 13.014C193.224 13.5927 193.508 14.4047 193.508 15.45V20H191.548V15.716C191.548 15.1 191.394 14.6287 191.086 14.302C190.778 13.966 190.358 13.798 189.826 13.798C189.285 13.798 188.856 13.966 188.538 14.302C188.23 14.6287 188.076 15.1 188.076 15.716V20H186.116V12.244H188.076V13.21C188.338 12.874 188.669 12.6127 189.07 12.426C189.481 12.23 189.929 12.132 190.414 12.132ZM202.124 10.228C203.151 10.228 204.052 10.4287 204.826 10.83C205.61 11.2313 206.212 11.8053 206.632 12.552C207.062 13.2893 207.276 14.148 207.276 15.128C207.276 16.108 207.062 16.9667 206.632 17.704C206.212 18.432 205.61 18.9967 204.826 19.398C204.052 19.7993 203.151 20 202.124 20H198.708V10.228H202.124ZM202.054 18.334C203.081 18.334 203.874 18.054 204.434 17.494C204.994 16.934 205.274 16.1453 205.274 15.128C205.274 14.1107 204.994 13.3173 204.434 12.748C203.874 12.1693 203.081 11.88 202.054 11.88H200.668V18.334H202.054ZM215.953 15.954C215.953 16.234 215.935 16.486 215.897 16.71H210.227C210.274 17.27 210.47 17.7087 210.815 18.026C211.161 18.3433 211.585 18.502 212.089 18.502C212.817 18.502 213.335 18.1893 213.643 17.564H215.757C215.533 18.3107 215.104 18.9267 214.469 19.412C213.835 19.888 213.055 20.126 212.131 20.126C211.385 20.126 210.713 19.9627 210.115 19.636C209.527 19.3 209.065 18.8287 208.729 18.222C208.403 17.6153 208.239 16.9153 208.239 16.122C208.239 15.3193 208.403 14.6147 208.729 14.008C209.056 13.4013 209.513 12.9347 210.101 12.608C210.689 12.2813 211.366 12.118 212.131 12.118C212.869 12.118 213.527 12.2767 214.105 12.594C214.693 12.9113 215.146 13.364 215.463 13.952C215.79 14.5307 215.953 15.198 215.953 15.954ZM213.923 15.394C213.914 14.89 213.732 14.4887 213.377 14.19C213.023 13.882 212.589 13.728 212.075 13.728C211.59 13.728 211.179 13.8773 210.843 14.176C210.517 14.4653 210.316 14.8713 210.241 15.394H213.923ZM220.618 18.194L222.578 12.244H224.664L221.794 20H219.414L216.558 12.244H218.658L220.618 18.194ZM232.975 15.954C232.975 16.234 232.956 16.486 232.919 16.71H227.249C227.295 17.27 227.491 17.7087 227.837 18.026C228.182 18.3433 228.607 18.502 229.111 18.502C229.839 18.502 230.357 18.1893 230.665 17.564H232.779C232.555 18.3107 232.125 18.9267 231.491 19.412C230.856 19.888 230.077 20.126 229.153 20.126C228.406 20.126 227.734 19.9627 227.137 19.636C226.549 19.3 226.087 18.8287 225.751 18.222C225.424 17.6153 225.261 16.9153 225.261 16.122C225.261 15.3193 225.424 14.6147 225.751 14.008C226.077 13.4013 226.535 12.9347 227.123 12.608C227.711 12.2813 228.387 12.118 229.153 12.118C229.89 12.118 230.548 12.2767 231.127 12.594C231.715 12.9113 232.167 13.364 232.485 13.952C232.811 14.5307 232.975 15.198 232.975 15.954ZM230.945 15.394C230.935 14.89 230.753 14.4887 230.399 14.19C230.044 13.882 229.61 13.728 229.097 13.728C228.611 13.728 228.201 13.8773 227.865 14.176C227.538 14.4653 227.337 14.8713 227.263 15.394H230.945ZM236.365 9.64V20H234.405V9.64H236.365ZM241.746 20.126C240.999 20.126 240.327 19.9627 239.73 19.636C239.133 19.3 238.661 18.8287 238.316 18.222C237.98 17.6153 237.812 16.9153 237.812 16.122C237.812 15.3287 237.985 14.6287 238.33 14.022C238.685 13.4153 239.165 12.9487 239.772 12.622C240.379 12.286 241.055 12.118 241.802 12.118C242.549 12.118 243.225 12.286 243.832 12.622C244.439 12.9487 244.915 13.4153 245.26 14.022C245.615 14.6287 245.792 15.3287 245.792 16.122C245.792 16.9153 245.61 17.6153 245.246 18.222C244.891 18.8287 244.406 19.3 243.79 19.636C243.183 19.9627 242.502 20.126 241.746 20.126ZM241.746 18.418C242.101 18.418 242.432 18.334 242.74 18.166C243.057 17.9887 243.309 17.7273 243.496 17.382C243.683 17.0367 243.776 16.6167 243.776 16.122C243.776 15.3847 243.58 14.82 243.188 14.428C242.805 14.0267 242.334 13.826 241.774 13.826C241.214 13.826 240.743 14.0267 240.36 14.428C239.987 14.82 239.8 15.3847 239.8 16.122C239.8 16.8593 239.982 17.4287 240.346 17.83C240.719 18.222 241.186 18.418 241.746 18.418ZM249.19 13.364C249.442 13.0093 249.787 12.7153 250.226 12.482C250.674 12.2393 251.182 12.118 251.752 12.118C252.414 12.118 253.012 12.2813 253.544 12.608C254.085 12.9347 254.51 13.4013 254.818 14.008C255.135 14.6053 255.294 15.3007 255.294 16.094C255.294 16.8873 255.135 17.592 254.818 18.208C254.51 18.8147 254.085 19.286 253.544 19.622C253.012 19.958 252.414 20.126 251.752 20.126C251.182 20.126 250.678 20.0093 250.24 19.776C249.81 19.5427 249.46 19.2487 249.19 18.894V23.696H247.23V12.244H249.19V13.364ZM253.292 16.094C253.292 15.6273 253.194 15.226 252.998 14.89C252.811 14.5447 252.559 14.2833 252.242 14.106C251.934 13.9287 251.598 13.84 251.234 13.84C250.879 13.84 250.543 13.9333 250.226 14.12C249.918 14.2973 249.666 14.5587 249.47 14.904C249.283 15.2493 249.19 15.6553 249.19 16.122C249.19 16.5887 249.283 16.9947 249.47 17.34C249.666 17.6853 249.918 17.9513 250.226 18.138C250.543 18.3153 250.879 18.404 251.234 18.404C251.598 18.404 251.934 18.3107 252.242 18.124C252.559 17.9373 252.811 17.6713 252.998 17.326C253.194 16.9807 253.292 16.57 253.292 16.094ZM266.35 12.132C267.302 12.132 268.067 12.426 268.646 13.014C269.234 13.5927 269.528 14.4047 269.528 15.45V20H267.568V15.716C267.568 15.1093 267.414 14.6473 267.106 14.33C266.798 14.0033 266.378 13.84 265.846 13.84C265.314 13.84 264.889 14.0033 264.572 14.33C264.264 14.6473 264.11 15.1093 264.11 15.716V20H262.15V15.716C262.15 15.1093 261.996 14.6473 261.688 14.33C261.38 14.0033 260.96 13.84 260.428 13.84C259.887 13.84 259.457 14.0033 259.14 14.33C258.832 14.6473 258.678 15.1093 258.678 15.716V20H256.718V12.244H258.678V13.182C258.93 12.8553 259.252 12.5987 259.644 12.412C260.045 12.2253 260.484 12.132 260.96 12.132C261.567 12.132 262.108 12.2627 262.584 12.524C263.06 12.776 263.429 13.14 263.69 13.616C263.942 13.168 264.306 12.8087 264.782 12.538C265.267 12.2673 265.79 12.132 266.35 12.132ZM278.598 15.954C278.598 16.234 278.579 16.486 278.542 16.71H272.872C272.919 17.27 273.115 17.7087 273.46 18.026C273.805 18.3433 274.23 18.502 274.734 18.502C275.462 18.502 275.98 18.1893 276.288 17.564H278.402C278.178 18.3107 277.749 18.9267 277.114 19.412C276.479 19.888 275.7 20.126 274.776 20.126C274.029 20.126 273.357 19.9627 272.76 19.636C272.172 19.3 271.71 18.8287 271.374 18.222C271.047 17.6153 270.884 16.9153 270.884 16.122C270.884 15.3193 271.047 14.6147 271.374 14.008C271.701 13.4013 272.158 12.9347 272.746 12.608C273.334 12.2813 274.011 12.118 274.776 12.118C275.513 12.118 276.171 12.2767 276.75 12.594C277.338 12.9113 277.791 13.364 278.108 13.952C278.435 14.5307 278.598 15.198 278.598 15.954ZM276.568 15.394C276.559 14.89 276.377 14.4887 276.022 14.19C275.667 13.882 275.233 13.728 274.72 13.728C274.235 13.728 273.824 13.8773 273.488 14.176C273.161 14.4653 272.961 14.8713 272.886 15.394H276.568ZM284.327 12.132C285.251 12.132 285.997 12.426 286.567 13.014C287.136 13.5927 287.421 14.4047 287.421 15.45V20H285.461V15.716C285.461 15.1 285.307 14.6287 284.999 14.302C284.691 13.966 284.271 13.798 283.739 13.798C283.197 13.798 282.768 13.966 282.451 14.302C282.143 14.6287 281.989 15.1 281.989 15.716V20H280.029V12.244H281.989V13.21C282.25 12.874 282.581 12.6127 282.983 12.426C283.393 12.23 283.841 12.132 284.327 12.132ZM291.566 13.854V17.606C291.566 17.8673 291.627 18.0587 291.748 18.18C291.879 18.292 292.094 18.348 292.392 18.348H293.302V20H292.07C290.418 20 289.592 19.1973 289.592 17.592V13.854H288.668V12.244H289.592V10.326H291.566V12.244H293.302V13.854H291.566Z" fill="white"/>
</svg>
