<svg width="40" height="25" viewBox="0 0 40 25" fill="none" xmlns="http://www.w3.org/2000/svg">
<path d="M36 0H4C1.8 0 0.02 1.40625 0.02 3.125L0 21.875C0 23.5938 1.8 25 4 25H36C38.2 25 40 23.5938 40 21.875V3.125C40 1.40625 38.2 0 36 0ZM35.2 6.64062L21.06 13.5469C20.42 13.8594 19.58 13.8594 18.94 13.5469L4.8 6.64062C4.59946 6.55267 4.42384 6.43385 4.28378 6.29133C4.14372 6.14882 4.04212 5.98559 3.98515 5.81152C3.92818 5.63744 3.91701 5.45615 3.95231 5.2786C3.98762 5.10106 4.06867 4.93096 4.19056 4.7786C4.31245 4.62623 4.47265 4.49477 4.66145 4.39218C4.85026 4.28959 5.06374 4.21799 5.28899 4.18172C5.51424 4.14545 5.74657 4.14526 5.97191 4.18117C6.19725 4.21708 6.41093 4.28833 6.6 4.39062L20 10.9375L33.4 4.39062C33.5891 4.28833 33.8027 4.21708 34.0281 4.18117C34.2534 4.14526 34.4858 4.14545 34.711 4.18172C34.9363 4.21799 35.1497 4.28959 35.3385 4.39218C35.5274 4.49477 35.6875 4.62623 35.8094 4.7786C35.9313 4.93096 36.0124 5.10106 36.0477 5.2786C36.083 5.45615 36.0718 5.63744 36.0149 5.81152C35.9579 5.98559 35.8563 6.14882 35.7162 6.29133C35.5762 6.43385 35.4005 6.55267 35.2 6.64062V6.64062Z" fill="white"/>
</svg>
