<svg width="29" height="18" viewBox="0 0 29 18" fill="none" xmlns="http://www.w3.org/2000/svg">
<path d="M25.6792 0H2.85325C1.28396 0 0.0142662 1.0125 0.0142662 2.25L0 15.75C0 16.9875 1.28396 18 2.85325 18H25.6792C27.2485 18 28.5325 16.9875 28.5325 15.75V2.25C28.5325 1.0125 27.2485 0 25.6792 0ZM25.1086 4.78125L15.0223 9.75375C14.5658 9.97875 13.9666 9.97875 13.5101 9.75375L3.4239 4.78125C3.28085 4.71792 3.15558 4.63237 3.05567 4.52976C2.95576 4.42715 2.88329 4.30963 2.84265 4.18429C2.80201 4.05896 2.79405 3.92843 2.81923 3.8006C2.84442 3.67276 2.90223 3.55029 2.98918 3.44059C3.07612 3.33089 3.19039 3.23624 3.32507 3.16237C3.45974 3.0885 3.61203 3.03695 3.7727 3.01084C3.93337 2.98472 4.09909 2.98459 4.25983 3.01044C4.42057 3.0363 4.57299 3.0876 4.70786 3.16125L14.2662 7.875L23.8246 3.16125C23.9595 3.0876 24.1119 3.0363 24.2726 3.01044C24.4334 2.98459 24.5991 2.98472 24.7598 3.01084C24.9204 3.03695 25.0727 3.0885 25.2074 3.16237C25.3421 3.23624 25.4563 3.33089 25.5433 3.44059C25.6302 3.55029 25.6881 3.67276 25.7132 3.8006C25.7384 3.92843 25.7305 4.05896 25.6898 4.18429C25.6492 4.30963 25.5767 4.42715 25.4768 4.52976C25.3769 4.63237 25.2516 4.71792 25.1086 4.78125V4.78125Z" fill="#E5E5E5"/>
</svg>
