<svg width="465" height="32" viewBox="0 0 465 32" fill="none" xmlns="http://www.w3.org/2000/svg">
<rect width="465" height="32" rx="5" fill="#29CD74"/>
<path d="M216.257 10.228V11.81H212.183V14.316H215.305V15.87H212.183V20H210.223V10.228H216.257ZM218.641 11.32C218.295 11.32 218.006 11.2127 217.773 10.998C217.549 10.774 217.437 10.4987 217.437 10.172C217.437 9.84533 217.549 9.57467 217.773 9.36C218.006 9.136 218.295 9.024 218.641 9.024C218.986 9.024 219.271 9.136 219.495 9.36C219.728 9.57467 219.845 9.84533 219.845 10.172C219.845 10.4987 219.728 10.774 219.495 10.998C219.271 11.2127 218.986 11.32 218.641 11.32ZM219.607 12.244V20H217.647V12.244H219.607ZM225.841 12.132C226.765 12.132 227.512 12.426 228.081 13.014C228.65 13.5927 228.935 14.4047 228.935 15.45V20H226.975V15.716C226.975 15.1 226.821 14.6287 226.513 14.302C226.205 13.966 225.785 13.798 225.253 13.798C224.712 13.798 224.282 13.966 223.965 14.302C223.657 14.6287 223.503 15.1 223.503 15.716V20H221.543V12.244H223.503V13.21C223.764 12.874 224.096 12.6127 224.497 12.426C224.908 12.23 225.356 12.132 225.841 12.132ZM231.793 11.32C231.448 11.32 231.158 11.2127 230.925 10.998C230.701 10.774 230.589 10.4987 230.589 10.172C230.589 9.84533 230.701 9.57467 230.925 9.36C231.158 9.136 231.448 9.024 231.793 9.024C232.138 9.024 232.423 9.136 232.647 9.36C232.88 9.57467 232.997 9.84533 232.997 10.172C232.997 10.4987 232.88 10.774 232.647 10.998C232.423 11.2127 232.138 11.32 231.793 11.32ZM232.759 12.244V20H230.799V12.244H232.759ZM237.663 20.126C237.029 20.126 236.459 20.014 235.955 19.79C235.451 19.5567 235.05 19.244 234.751 18.852C234.462 18.46 234.303 18.026 234.275 17.55H236.249C236.287 17.8487 236.431 18.096 236.683 18.292C236.945 18.488 237.267 18.586 237.649 18.586C238.023 18.586 238.312 18.5113 238.517 18.362C238.732 18.2127 238.839 18.0213 238.839 17.788C238.839 17.536 238.709 17.3493 238.447 17.228C238.195 17.0973 237.789 16.9573 237.229 16.808C236.651 16.668 236.175 16.5233 235.801 16.374C235.437 16.2247 235.12 15.996 234.849 15.688C234.588 15.38 234.457 14.9647 234.457 14.442C234.457 14.0127 234.579 13.6207 234.821 13.266C235.073 12.9113 235.428 12.6313 235.885 12.426C236.352 12.2207 236.898 12.118 237.523 12.118C238.447 12.118 239.185 12.3513 239.735 12.818C240.286 13.2753 240.589 13.896 240.645 14.68H238.769C238.741 14.372 238.611 14.1293 238.377 13.952C238.153 13.7653 237.85 13.672 237.467 13.672C237.113 13.672 236.837 13.7373 236.641 13.868C236.455 13.9987 236.361 14.1807 236.361 14.414C236.361 14.6753 236.492 14.876 236.753 15.016C237.015 15.1467 237.421 15.282 237.971 15.422C238.531 15.562 238.993 15.7067 239.357 15.856C239.721 16.0053 240.034 16.2387 240.295 16.556C240.566 16.864 240.706 17.2747 240.715 17.788C240.715 18.236 240.589 18.6373 240.337 18.992C240.095 19.3467 239.74 19.6267 239.273 19.832C238.816 20.028 238.279 20.126 237.663 20.126ZM246.692 12.132C247.28 12.132 247.803 12.2627 248.26 12.524C248.718 12.776 249.072 13.154 249.324 13.658C249.586 14.1527 249.716 14.75 249.716 15.45V20H247.756V15.716C247.756 15.1 247.602 14.6287 247.294 14.302C246.986 13.966 246.566 13.798 246.034 13.798C245.493 13.798 245.064 13.966 244.746 14.302C244.438 14.6287 244.284 15.1 244.284 15.716V20H242.324V9.64H244.284V13.21C244.536 12.874 244.872 12.6127 245.292 12.426C245.712 12.23 246.179 12.132 246.692 12.132ZM258.79 15.954C258.79 16.234 258.772 16.486 258.734 16.71H253.064C253.111 17.27 253.307 17.7087 253.652 18.026C253.998 18.3433 254.422 18.502 254.926 18.502C255.654 18.502 256.172 18.1893 256.48 17.564H258.594C258.37 18.3107 257.941 18.9267 257.306 19.412C256.672 19.888 255.892 20.126 254.968 20.126C254.222 20.126 253.55 19.9627 252.952 19.636C252.364 19.3 251.902 18.8287 251.566 18.222C251.24 17.6153 251.076 16.9153 251.076 16.122C251.076 15.3193 251.24 14.6147 251.566 14.008C251.893 13.4013 252.35 12.9347 252.938 12.608C253.526 12.2813 254.203 12.118 254.968 12.118C255.706 12.118 256.364 12.2767 256.942 12.594C257.53 12.9113 257.983 13.364 258.3 13.952C258.627 14.5307 258.79 15.198 258.79 15.954ZM256.76 15.394C256.751 14.89 256.569 14.4887 256.214 14.19C255.86 13.882 255.426 13.728 254.912 13.728C254.427 13.728 254.016 13.8773 253.68 14.176C253.354 14.4653 253.153 14.8713 253.078 15.394H256.76ZM259.717 16.094C259.717 15.31 259.871 14.6147 260.179 14.008C260.496 13.4013 260.926 12.9347 261.467 12.608C262.008 12.2813 262.61 12.118 263.273 12.118C263.777 12.118 264.258 12.23 264.715 12.454C265.172 12.6687 265.536 12.958 265.807 13.322V9.64H267.795V20H265.807V18.852C265.564 19.2347 265.224 19.5427 264.785 19.776C264.346 20.0093 263.838 20.126 263.259 20.126C262.606 20.126 262.008 19.958 261.467 19.622C260.926 19.286 260.496 18.8147 260.179 18.208C259.871 17.592 259.717 16.8873 259.717 16.094ZM265.821 16.122C265.821 15.646 265.728 15.24 265.541 14.904C265.354 14.5587 265.102 14.2973 264.785 14.12C264.468 13.9333 264.127 13.84 263.763 13.84C263.399 13.84 263.063 13.9287 262.755 14.106C262.447 14.2833 262.195 14.5447 261.999 14.89C261.812 15.226 261.719 15.6273 261.719 16.094C261.719 16.5607 261.812 16.9713 261.999 17.326C262.195 17.6713 262.447 17.9373 262.755 18.124C263.072 18.3107 263.408 18.404 263.763 18.404C264.127 18.404 264.468 18.3153 264.785 18.138C265.102 17.9513 265.354 17.69 265.541 17.354C265.728 17.0087 265.821 16.598 265.821 16.122Z" fill="white"/>
</svg>
