<svg width="18" height="18" viewBox="0 0 18 18" fill="none" xmlns="http://www.w3.org/2000/svg">
<path d="M6.75 0C6.55109 0 6.36032 0.0790178 6.21967 0.21967C6.07902 0.360322 6 0.551088 6 0.75C6 0.948912 6.07902 1.13968 6.21967 1.28033C6.36032 1.42098 6.55109 1.5 6.75 1.5H8.25V16.5H6.75C6.55109 16.5 6.36032 16.579 6.21967 16.7197C6.07902 16.8603 6 17.0511 6 17.25C6 17.4489 6.07902 17.6397 6.21967 17.7803C6.36032 17.921 6.55109 18 6.75 18H11.25C11.4489 18 11.6397 17.921 11.7803 17.7803C11.921 17.6397 12 17.4489 12 17.25C12 17.0511 11.921 16.8603 11.7803 16.7197C11.6397 16.579 11.4489 16.5 11.25 16.5H9.75V1.5H11.25C11.4489 1.5 11.6397 1.42098 11.7803 1.28033C11.921 1.13968 12 0.948912 12 0.75C12 0.551088 11.921 0.360322 11.7803 0.21967C11.6397 0.0790178 11.4489 0 11.25 0H6.75Z" fill="#E5E5E5"/>
<path d="M3 3H6.75V15H3C2.20435 15 1.44129 14.6839 0.87868 14.1213C0.31607 13.5587 0 12.7956 0 12V6C0 5.20435 0.31607 4.44129 0.87868 3.87868C1.44129 3.31607 2.20435 3 3 3V3Z" fill="#E5E5E5"/>
<path d="M15 15H11.25V3H15C15.7956 3 16.5587 3.31607 17.1213 3.87868C17.6839 4.44129 18 5.20435 18 6V12C18 12.7956 17.6839 13.5587 17.1213 14.1213C16.5587 14.6839 15.7956 15 15 15Z" fill="#E5E5E5"/>
</svg>
