<svg width="30" height="29" viewBox="0 0 30 29" fill="none" xmlns="http://www.w3.org/2000/svg">
<path d="M15.0017 1.21993e-06C6.71322 -0.00325661 0 6.51892 0 14.569C0 20.9348 4.19953 26.3461 10.048 28.3333C10.8357 28.5255 10.715 27.9815 10.715 27.6101V25.0853C6.16691 25.6033 5.98257 22.6777 5.67758 22.1891C5.06089 21.1661 3.60295 20.9055 4.03866 20.4168C5.07429 19.8988 6.13004 20.5471 7.35337 22.3031C8.23819 23.5769 9.96425 23.3619 10.839 23.1501C11.0301 22.3845 11.4389 21.7004 12.002 21.1694C7.28969 20.3484 5.32566 17.5532 5.32566 14.2302C5.32566 12.6176 5.87197 11.1353 6.94448 9.93963C6.26075 7.96865 7.00816 6.28109 7.1087 6.03024C9.05597 5.86083 11.0803 7.3855 11.2379 7.50604C12.3439 7.21609 13.6074 7.06297 15.0218 7.06297C16.4429 7.06297 17.7098 7.22261 18.8258 7.51581C19.2046 7.23564 21.0814 5.92599 22.8913 6.08562C22.9885 6.33648 23.7191 7.98494 23.0756 9.92986C24.1615 11.1287 24.7146 12.6241 24.7146 14.24C24.7146 17.5695 22.7371 20.3679 18.0114 21.1759C18.4162 21.5628 18.7376 22.0243 18.9568 22.5333C19.1761 23.0423 19.2888 23.5887 19.2883 24.1405V27.8056C19.3152 28.0988 19.2883 28.3887 19.7911 28.3887C25.7267 26.4438 30 20.9934 30 14.5723C30 6.51891 23.2834 1.21993e-06 15.0017 1.21993e-06Z" fill="white"/>
</svg>
