<svg width="31" height="29" viewBox="0 0 31 29" fill="none" xmlns="http://www.w3.org/2000/svg">
<path d="M27.7638 3.82147e-05H2.2376C1.65598 -0.00328044 1.09611 0.209668 0.677884 0.593282C0.259658 0.976895 0.0163275 1.50068 0 2.05246V26.3374C0.0131274 26.8902 0.255457 27.4158 0.674386 27.8001C1.09331 28.1843 1.65503 28.3962 2.2376 28.3899H27.7638C28.3463 28.3962 28.908 28.1843 29.327 27.8001C29.7459 27.4158 29.9882 26.8902 30.0014 26.3374V2.05246C29.985 1.50068 29.7417 0.976895 29.3235 0.593282C28.9053 0.209668 28.3454 -0.00328044 27.7638 3.82147e-05V3.82147e-05ZM8.8879 24.2138H4.4877V10.6774H8.8879V24.2138ZM6.73781 8.79104C6.06222 8.79122 5.41335 8.54065 4.92983 8.09285C4.44632 7.64505 4.16651 7.03555 4.15019 6.39457C4.13795 6.06895 4.19652 5.74442 4.32223 5.44122C4.44794 5.13802 4.6381 4.86263 4.88087 4.63224C5.12363 4.40184 5.4138 4.22136 5.73328 4.10206C6.05276 3.98275 6.3947 3.92717 6.73781 3.93878C7.39139 3.98198 8.00338 4.25885 8.45027 4.71353C8.89716 5.16821 9.14568 5.76685 9.14568 6.38864C9.14568 7.01042 8.89716 7.60906 8.45027 8.06374C8.00338 8.51843 7.39139 8.7953 6.73781 8.83849V8.79104ZM25.6012 24.1308H21.251V17.5109C21.251 15.933 21.251 13.8806 18.9259 13.8806C16.6008 13.8806 16.2507 15.6127 16.2507 17.3566V24.0596H11.8005V10.6774H15.9507V12.4569H16.0382C16.4636 11.7558 17.0839 11.1792 17.8312 10.79C18.5786 10.4008 19.4243 10.2141 20.2759 10.2503C24.7636 10.2503 25.6012 13.0976 25.6012 16.716V24.1308Z" fill="white"/>
</svg>
