<svg width="45" height="29" viewBox="0 0 45 29" fill="none" xmlns="http://www.w3.org/2000/svg">
<path d="M40.5 0.314514H4.5C2.025 0.314514 0.0225 1.91138 0.0225 3.8631L0 25.1546C0 27.1064 2.025 28.7032 4.5 28.7032H40.5C42.975 28.7032 45 27.1064 45 25.1546V3.8631C45 1.91138 42.975 0.314514 40.5 0.314514ZM39.6 7.85527L23.6925 15.6976C22.9725 16.0525 22.0275 16.0525 21.3075 15.6976L5.4 7.85527C5.17439 7.75539 4.97682 7.62046 4.81925 7.45863C4.66168 7.2968 4.54739 7.11144 4.48329 6.91377C4.4192 6.7161 4.40663 6.51024 4.44635 6.30863C4.48607 6.10701 4.57726 5.91386 4.71438 5.74084C4.85151 5.56782 5.03173 5.41855 5.24413 5.30205C5.45654 5.18555 5.69671 5.10424 5.95011 5.06306C6.20352 5.02187 6.46489 5.02166 6.7184 5.06243C6.97191 5.10321 7.21229 5.18412 7.425 5.30028L22.5 12.7346L37.575 5.30028C37.7877 5.18412 38.0281 5.10321 38.2816 5.06243C38.5351 5.02166 38.7965 5.02187 39.0499 5.06306C39.3033 5.10424 39.5435 5.18555 39.7559 5.30205C39.9683 5.41855 40.1485 5.56782 40.2856 5.74084C40.4227 5.91386 40.5139 6.10701 40.5536 6.30863C40.5934 6.51024 40.5808 6.7161 40.5167 6.91377C40.4526 7.11144 40.3383 7.2968 40.1808 7.45863C40.0232 7.62046 39.8256 7.75539 39.6 7.85527V7.85527Z" fill="white"/>
</svg>
