<svg width="46" height="61" viewBox="0 0 46 61" fill="none" xmlns="http://www.w3.org/2000/svg">
<path d="M27.2154 0C32.9355 4.64762 37.4491 10.2784 40.756 16.8923C44.063 23.5062 45.7165 30.6117 45.7165 38.2088C45.7165 44.4652 43.4821 49.8278 39.0132 54.2967C34.5443 58.7656 29.1593 61 22.8582 61C16.5571 61 11.1722 58.7656 6.7033 54.2967C2.23443 49.8278 0 44.4652 0 38.2088C0 28.556 3.08352 20.0652 9.25055 12.7363L9.11648 13.8088C9.11648 16.7582 10.122 19.2608 12.133 21.3165C14.144 23.3722 16.6242 24.4 19.5736 24.4C22.4337 24.4 24.7575 23.3722 26.5451 21.3165C28.3326 19.2608 29.2264 16.7582 29.2264 13.8088C29.2264 11.9319 29.07 9.85385 28.7571 7.57473C28.4443 5.2956 28.1092 3.48571 27.7516 2.14506L27.2154 0ZM21.9868 52.4198C25.83 52.4198 29.0923 51.0791 31.7736 48.3978C34.4549 45.7165 35.7956 42.4989 35.7956 38.7451C35.7956 34.7231 35.2147 30.8799 34.0527 27.2154C31.3714 30.8799 26.9919 33.3377 20.9143 34.589C18.3223 35.1253 16.3337 36.1755 14.9484 37.7396C13.563 39.3037 12.8703 41.2029 12.8703 43.4374C12.8703 45.9399 13.7641 48.0626 15.5516 49.8055C17.3392 51.5484 19.4843 52.4198 21.9868 52.4198Z" fill="white"/>
</svg>
