<svg width="59" height="61" viewBox="0 0 59 61" fill="none" xmlns="http://www.w3.org/2000/svg">
<path d="M58.9667 52.5454L45.872 43.4605C50.7947 42.5516 54.0531 41.5979 54.0531 41.5979L43.0386 32.4276C46.727 31.5482 49.1396 30.6637 49.1396 30.6637L39.8645 20.982C42.5078 20.0731 44.225 19.1814 44.225 19.1814L29.4823 0L14.7417 19.1814C14.7417 19.1814 16.4588 20.0731 19.1011 20.982L9.82812 30.6637C9.82812 30.6637 12.2396 31.5482 15.9271 32.4266L4.91355 41.5979C4.91355 41.5979 8.17197 42.5516 13.0936 43.4605L0 52.5454C0 52.5454 10.2205 55.0423 22.6035 55.8079V61H36.3631V55.8079C48.7451 55.0423 58.9667 52.5454 58.9667 52.5454Z" fill="white"/>
</svg>
