<svg width="98" height="61" viewBox="0 0 98 61" fill="none" xmlns="http://www.w3.org/2000/svg">
<path d="M79.1181 34.1729C78.2277 41.7412 74.9046 48.1011 69.1489 53.2527C63.3931 58.4043 56.6357 60.98 48.8766 60.98C43.8522 60.98 39.114 59.8034 34.6621 57.4503C26.5213 59.9942 19.3823 61.1708 13.245 60.98C7.10762 60.7892 3.08496 59.1356 1.17697 56.0193C-0.858209 52.8393 -0.254015 48.594 2.98956 43.2835C6.23313 37.9729 11.4483 32.4875 18.635 26.8271C19.5254 19.1952 22.8485 12.8194 28.6042 7.6996C34.36 2.57984 41.1174 0.0199673 48.8766 0.0199673C53.9009 0.0199673 58.6391 1.19656 63.091 3.54974C71.2318 1.00576 78.3708 -0.170831 84.5081 0.0199673C90.6455 0.210766 94.6682 1.83255 96.5761 4.88532C98.6113 8.1289 98.0071 12.3901 94.7635 17.6688C91.52 22.9476 86.3048 28.4489 79.1181 34.1729ZM13.0065 51.6309C13.9605 53.3481 15.9002 54.3975 18.8258 54.7791C21.7514 55.1607 25.2494 54.8427 29.3197 53.8251C23.7866 49.2459 20.3522 43.4266 19.0166 36.367C13.0383 43.1086 11.0349 48.1965 13.0065 51.6309ZM84.7466 9.27369C83.7926 7.5565 81.8529 6.52301 78.9273 6.17321C76.0017 5.82342 72.5037 6.12551 68.4334 7.07951C73.9665 11.7223 77.4009 17.5416 78.7365 24.5376C84.7148 17.8596 86.7182 12.7717 84.7466 9.27369Z" fill="white"/>
</svg>
