<svg width="71" height="61" viewBox="0 0 71 61" fill="none" xmlns="http://www.w3.org/2000/svg">
<g clip-path="url(#clip0)">
<path d="M41.8227 25.1862L41.8469 25.2007V11.9886H30.4392V19.067C32.9018 18.1838 35.7097 18.3816 37.9724 19.5977C40.2346 20.8133 41.6699 22.8961 41.8227 25.1852V25.1862Z" fill="white"/>
<path d="M27.9042 25.6009C27.9042 25.71 27.9259 25.8057 27.9332 25.9093L31.0036 24.1504C31.4294 23.9063 31.9846 23.9063 32.4104 24.1504L35.5093 25.928L38.6087 24.1525C38.722 24.0893 38.8464 24.0419 38.9777 24.0121C38.079 21.7469 35.4035 20.374 32.6561 20.7685C29.9088 21.1625 27.8973 23.2081 27.9042 25.6009Z" fill="white"/>
<path d="M42.5895 9.81057L46.3921 6.54358H36.034L32.2316 9.81057H42.5895Z" fill="white"/>
<path d="M44.3818 25.2006L45.3579 24.6406L52.0849 9.25645L49.452 6.99445L44.3818 11.3504V25.2006Z" fill="white"/>
<path d="M21.5227 9.31069C21.9695 9.71215 21.9937 10.3385 21.5778 10.7639C21.1625 11.1898 20.4402 11.2781 19.9024 10.9692C19.3682 10.6629 18.6565 10.7203 18.1979 11.1064L18.1657 11.1361L18.1434 11.1548C17.9609 11.3238 17.839 11.5349 17.7919 11.762C17.7027 12.1624 17.8445 12.575 18.1725 12.8696C18.2029 12.8968 18.4002 13.0876 18.6479 13.3412L18.9722 13.6677C19.4295 13.6869 19.8838 13.7459 20.327 13.8443C22.2313 14.2718 23.8293 15.3826 24.7125 16.8933L27.1058 21.2721C27.3509 21.0014 27.6183 20.7467 27.9066 20.5101V10.8995C27.9066 10.8756 27.921 10.8559 27.9222 10.832C27.9296 10.7341 27.9525 10.6374 27.9909 10.5449C28.0045 10.5098 28.0143 10.4763 28.0323 10.4422C28.0923 10.3274 28.1752 10.2221 28.2768 10.1317L28.8654 9.62654L28.827 9.5941L32.5615 6.32711C33.1117 5.8427 33.1117 5.06903 32.5615 4.58462C32.0267 4.13211 31.1689 4.13211 30.6348 4.58462L28.7663 6.21705C28.4056 6.53184 27.859 6.62862 27.383 6.46165C26.9071 6.29415 26.5958 5.8964 26.5952 5.45454V1.09856C26.6156 0.711984 26.3872 0.347213 26.0005 0.148875C25.6142 -0.0494624 25.1321 -0.0494624 24.7453 0.148875C24.359 0.347213 24.1308 0.711984 24.1511 1.09856V5.45454C24.1511 5.89694 23.8398 6.29521 23.3626 6.46271C22.8861 6.62967 22.339 6.5329 21.9787 6.21705L20.1177 4.58356C19.8633 4.3581 19.5137 4.23102 19.1485 4.23048C18.7828 4.23048 18.4331 4.3581 18.1787 4.58356C17.6322 5.06796 17.6285 5.83686 18.17 6.32606L21.5227 9.31069Z" fill="white"/>
<path d="M36.7768 2.18756H48.1844V4.36556H36.7768V2.18756Z" fill="white"/>
<path d="M16.1889 47.9254C15.0977 47.9228 14.0512 48.2955 13.2825 48.9601L12.3226 49.7844C11.8275 50.2098 11.0254 50.2098 10.5302 49.7844L9.57093 48.9601C8.39563 47.9504 6.62742 47.6484 5.09129 48.1945C3.55579 48.7412 2.5544 50.029 2.55377 51.4573C2.55749 53.9787 3.24076 56.4651 4.55036 58.7217L4.99289 59.4842C5.53009 60.4122 6.63423 60.997 7.84047 60.9933C8.33746 60.9933 8.82701 60.895 9.272 60.7051L10.8663 60.0187C11.2228 59.8656 11.643 59.8656 11.9995 60.0187L13.595 60.7051C14.0357 60.8933 14.5203 60.9918 15.0124 60.9933C16.2199 60.9965 17.324 60.4101 17.8606 59.4811L18.3031 58.7186C19.6121 56.463 20.2953 53.9777 20.299 51.4573C20.2966 49.5079 18.4578 47.9281 16.1889 47.9254Z" fill="white"/>
<path d="M57.6215 28.1406L54.5221 26.3635L51.987 27.8151V60.9933H57.0571C59.1576 60.9933 60.8596 59.531 60.8596 57.7263V27.092L59.0283 28.1406C58.6025 28.3846 58.0474 28.3846 57.6215 28.1406Z" fill="white"/>
<path d="M15.6362 22.3202L18.9312 20.1299L20.4829 21.8527L17.2151 24.0233L17.4867 24.3164L20.299 25.928L23.3985 24.1526C23.8243 23.9084 24.3795 23.9084 24.8053 24.1526L25.4731 24.536C25.5188 24.2754 25.582 24.0164 25.6619 23.7618L22.4312 17.8478C21.8767 16.906 20.8777 16.2153 19.6894 15.9506C18.5006 15.6863 17.2374 15.8735 16.2205 16.4647C15.1936 17.0677 14.5135 18.0163 14.3477 19.075C14.1818 20.1343 14.5463 21.2035 15.3509 22.0182L15.6362 22.3202Z" fill="white"/>
<path d="M43.818 28.1406C43.3923 28.3846 42.837 28.3846 42.4113 28.1406L39.3118 26.3635L36.213 28.1384C35.7871 28.3824 35.232 28.3824 34.8061 28.1384L31.7066 26.3635L28.6078 28.1384C28.182 28.3824 27.6268 28.3824 27.201 28.1384L24.1016 26.3635L21.0027 28.1384C20.5768 28.3824 20.0217 28.3824 19.596 28.1384L17.7639 27.092V45.9314C20.7334 46.5535 22.826 48.8357 22.834 51.4614C22.8297 54.3211 22.0548 57.1403 20.5707 59.6996L20.1282 60.4621C20.018 60.6477 19.8949 60.8273 19.7593 61.0003H49.4519V27.8173L46.9169 26.3635L43.818 28.1406Z" fill="white"/>
<path d="M67.3977 2.12537C66.3549 0.798694 64.6127 0.00534358 62.7498 0.00800227C60.3689 0.0340574 58.2522 1.31713 57.426 3.23617L48.1479 24.4509L50.7195 25.9264L53.8189 24.151C54.2448 23.9068 54.7999 23.9068 55.2257 24.151L58.3247 25.9264L60.2259 24.8374L68.0848 6.87538C68.7761 5.2908 68.5199 3.51586 67.3977 2.12537ZM57.0571 22.1255L54.5802 15.5916L56.989 14.9163L59.464 21.4503L57.0571 22.1255ZM60.7712 14.5026L58.2943 7.96862L60.7024 7.29331L63.1781 13.8273L60.7712 14.5026Z" fill="white"/>
</g>
<defs>
<clipPath id="clip0">
<rect width="71" height="61" fill="white"/>
</clipPath>
</defs>
</svg>
