<svg width="22" height="18" viewBox="0 0 22 18" fill="none" xmlns="http://www.w3.org/2000/svg">
<path d="M12.1 15H1.1C0.808262 15 0.528473 15.158 0.322182 15.4393C0.115892 15.7206 0 16.1022 0 16.5C0 16.8978 0.115892 17.2794 0.322182 17.5607C0.528473 17.842 0.808262 18 1.1 18H12.1C12.3917 18 12.6715 17.842 12.8778 17.5607C13.0841 17.2794 13.2 16.8978 13.2 16.5C13.2 16.1022 13.0841 15.7206 12.8778 15.4393C12.6715 15.158 12.3917 15 12.1 15ZM1.1 3H20.9C21.1917 3 21.4715 2.84196 21.6778 2.56066C21.8841 2.27936 22 1.89782 22 1.5C22 1.10218 21.8841 0.720645 21.6778 0.43934C21.4715 0.158036 21.1917 0 20.9 0H1.1C0.808262 0 0.528473 0.158036 0.322182 0.43934C0.115892 0.720645 0 1.10218 0 1.5C0 1.89782 0.115892 2.27936 0.322182 2.56066C0.528473 2.84196 0.808262 3 1.1 3V3ZM20.9 7.5H1.1C0.808262 7.5 0.528473 7.65804 0.322182 7.93934C0.115892 8.22064 0 8.60218 0 9C0 9.39782 0.115892 9.77936 0.322182 10.0607C0.528473 10.342 0.808262 10.5 1.1 10.5H20.9C21.1917 10.5 21.4715 10.342 21.6778 10.0607C21.8841 9.77936 22 9.39782 22 9C22 8.60218 21.8841 8.22064 21.6778 7.93934C21.4715 7.65804 21.1917 7.5 20.9 7.5Z" fill="#E5E5E5"/>
</svg>
