<svg width="89" height="24" viewBox="0 0 89 24" fill="none" xmlns="http://www.w3.org/2000/svg">
<path d="M0 20.9054C0 22.6147 1.38553 24 3.09459 24H20.9053C22.6147 24 24 22.6145 24 20.9054V3.09469C24 1.38534 22.6145 0 20.9054 0H3.09469C1.38534 0 0 1.38553 0 3.09459V20.9053V20.9054Z" fill="#563D7C"/>
<path d="M9.95224 10.6161V7.21734H12.9439C13.2289 7.21734 13.5036 7.24106 13.7681 7.28859C14.0327 7.33603 14.2668 7.42078 14.4703 7.54294C14.6738 7.66509 14.8366 7.83469 14.9588 8.05172C15.0808 8.26884 15.142 8.547 15.142 8.88609C15.142 9.49669 14.9588 9.93769 14.5924 10.209C14.2261 10.4804 13.758 10.6161 13.1881 10.6161H9.95224ZM6.75696 4.73438V19.2656H13.7987C14.45 19.2656 15.0843 19.1843 15.7016 19.0214C16.319 18.8586 16.8685 18.6076 17.3501 18.2684C17.8317 17.9292 18.2151 17.4916 18.5 16.9557C18.785 16.4197 18.9274 15.7854 18.9274 15.0528C18.9274 14.1437 18.7069 13.367 18.266 12.7225C17.825 12.078 17.1567 11.6269 16.2612 11.3691C16.9125 11.0571 17.4044 10.6567 17.7369 10.1683C18.0692 9.67987 18.2354 9.06938 18.2354 8.33663C18.2354 7.65825 18.1235 7.08844 17.8996 6.62709C17.6757 6.16584 17.3603 5.79609 16.9532 5.51794C16.5462 5.23978 16.0578 5.03962 15.4879 4.91756C14.9181 4.79541 14.2871 4.73438 13.5952 4.73438H6.75696ZM9.95224 16.7827V12.7937H13.4323C14.1243 12.7937 14.6806 12.9531 15.1013 13.272C15.5218 13.5908 15.7322 14.1233 15.7322 14.8696C15.7322 15.2496 15.6677 15.5616 15.5388 15.8058C15.4099 16.05 15.2369 16.2434 15.0198 16.3858C14.8028 16.5283 14.5517 16.63 14.2668 16.6912C13.9818 16.7521 13.6834 16.7827 13.3713 16.7827H9.95224Z" fill="white"/>
<path d="M77.6416 24C77.3178 24.0001 76.9997 23.915 76.7193 23.7531L73.7844 22.0157C73.3464 21.7705 73.5598 21.684 73.7047 21.6334C74.1705 21.4895 74.6165 21.2879 75.0324 21.0334C75.0672 21.0173 75.1056 21.0103 75.1438 21.0132C75.182 21.016 75.2189 21.0286 75.251 21.0497L77.5062 22.3894C77.5481 22.4116 77.5949 22.4232 77.6424 22.4232C77.6899 22.4232 77.7367 22.4116 77.7787 22.3894L86.5731 17.3133C86.6143 17.2887 86.6483 17.2538 86.6719 17.212C86.6955 17.1702 86.7078 17.123 86.7077 17.075V6.92119C86.7077 6.87246 86.6952 6.82454 86.6713 6.78205C86.6475 6.73956 86.6131 6.70394 86.5714 6.67862L77.777 1.60683C77.7355 1.58348 77.6887 1.57121 77.6412 1.57121C77.5936 1.57121 77.5468 1.58348 77.5053 1.60683L68.716 6.68033C68.6741 6.70512 68.6393 6.74033 68.615 6.78252C68.5906 6.82472 68.5776 6.87249 68.5772 6.92119V17.0708C68.5773 17.1186 68.5901 17.1656 68.6144 17.2069C68.6386 17.2481 68.6734 17.2822 68.7152 17.3056L71.1272 18.6976C72.4344 19.3508 73.2349 18.5811 73.2349 17.8079V7.78692C73.2349 7.71872 73.262 7.65331 73.3103 7.60509C73.3585 7.55686 73.4239 7.52977 73.4921 7.52977H74.6064C74.6746 7.52977 74.74 7.55686 74.7882 7.60509C74.8365 7.65331 74.8635 7.71872 74.8635 7.78692V17.8088C74.8635 19.5531 73.9138 20.5517 72.2595 20.5517C71.5458 20.5641 70.8433 20.3732 70.2341 20.0014L67.9223 18.6754C67.6417 18.5119 67.4088 18.2777 67.247 17.9962C67.0851 17.7146 67 17.3955 67 17.0708V6.92119C66.9992 6.59593 67.084 6.27617 67.2459 5.99406C67.4078 5.71194 67.6411 5.47741 67.9223 5.31403L76.7176 0.236241C77.0009 0.08124 77.3186 0 77.6416 0C77.9645 0 78.2823 0.08124 78.5656 0.236241L87.36 5.31403C87.6406 5.47714 87.8735 5.71099 88.0355 5.99225C88.1975 6.27351 88.2829 6.59233 88.2832 6.9169V17.0708C88.2827 17.3955 88.1972 17.7145 88.0353 17.996C87.8733 18.2775 87.6405 18.5117 87.36 18.6754L78.5656 23.7531C78.2846 23.9152 77.9659 24.0004 77.6416 24Z" fill="#83CD29"/>
<path d="M75.9736 13.6739C75.9736 13.6057 76.0007 13.5403 76.0489 13.492C76.0971 13.4438 76.1625 13.4167 76.2307 13.4167H77.3682C77.4289 13.4169 77.4877 13.4386 77.534 13.478C77.5803 13.5174 77.6111 13.5719 77.621 13.6319C77.7925 14.7899 78.3067 15.3736 80.6322 15.3736C82.4845 15.3736 83.274 14.9545 83.274 13.9713C83.274 13.4047 83.0502 12.9839 80.1711 12.7019C77.7642 12.4636 76.2761 11.9304 76.2761 10.007C76.2761 8.23266 77.7719 7.17407 80.2791 7.17407C83.0965 7.17407 84.4911 8.15209 84.6677 10.2504C84.6704 10.2854 84.6659 10.3206 84.6544 10.3539C84.643 10.3871 84.6249 10.4176 84.6012 10.4436C84.5775 10.4695 84.5487 10.4903 84.5167 10.5047C84.4846 10.5191 84.45 10.5268 84.4148 10.5273H83.2697C83.2122 10.5265 83.1567 10.5064 83.112 10.4704C83.0672 10.4344 83.0358 10.3844 83.0228 10.3284C82.7494 9.11039 82.0799 8.72124 80.2799 8.72124C78.257 8.72124 78.0222 9.42582 78.0222 9.95383C78.0222 10.5933 78.2999 10.7801 81.0308 11.141C83.7334 11.4984 85.0174 12.0041 85.0174 13.9036C85.0174 15.8202 83.4197 16.9174 80.6331 16.9174C76.7802 16.9225 75.9736 15.1559 75.9736 13.6739Z" fill="#83CD29"/>
<path d="M37 19.3718L37.1457 19.1686L44.0203 6.1275L44.0349 5.98949L41.0047 0.297828C40.9493 0.193747 40.8625 0.109744 40.7566 0.0577021C40.6508 0.00566045 40.5313 -0.0117843 40.415 0.00783565C40.2987 0.0274556 40.1915 0.083147 40.1086 0.167031C40.0257 0.250915 39.9712 0.358744 39.953 0.475264L37 19.3718Z" fill="#FFC24A"/>
<path d="M37.0857 19.2175L37.1954 19.0032L43.9988 6.09753L40.9764 0.383576C40.9266 0.284205 40.8459 0.20366 40.7464 0.154006C40.647 0.104352 40.5341 0.0882632 40.4247 0.10815C40.3153 0.128036 40.2153 0.182828 40.1397 0.264315C40.0641 0.345803 40.0169 0.449599 40.0052 0.560154L37.0857 19.2175Z" fill="#FFA712"/>
<path d="M46.2437 10.2943L48.4998 7.9799L46.2429 3.676C46.1932 3.58338 46.1194 3.50596 46.0292 3.45198C45.939 3.39801 45.8358 3.36951 45.7307 3.36951C45.6256 3.36951 45.5225 3.39801 45.4323 3.45198C45.3421 3.50596 45.2682 3.58338 45.2186 3.676L44.0125 5.97496V6.17125L46.2437 10.2943Z" fill="#F4BD62"/>
<path d="M46.2035 10.2L48.397 7.95421L46.2035 3.77118C46.1675 3.68063 46.1062 3.6024 46.0269 3.54593C45.9475 3.48945 45.8535 3.45713 45.7562 3.45288C45.6589 3.44862 45.5624 3.4726 45.4784 3.52193C45.3944 3.57126 45.3265 3.64383 45.2828 3.73089L44.0708 6.07013L44.0348 6.18928L46.2035 10.2Z" fill="#FFA50E"/>
<path d="M37.0016 19.3727L37.0677 19.3059L37.3068 19.209L46.1015 10.4469L46.2129 10.1435L44.0194 5.96216L37.0016 19.3727Z" fill="#F6820C"/>
<path d="M46.525 23.7915L54.4864 19.3522L52.2115 5.35364C52.1952 5.25496 52.152 5.16267 52.0867 5.08693C52.0214 5.01118 51.9364 4.95489 51.8412 4.92425C51.746 4.8936 51.6442 4.88979 51.547 4.91321C51.4497 4.93664 51.3608 4.98641 51.29 5.05705L37 19.3719L44.9143 23.7907C45.1604 23.928 45.4375 24.0001 45.7192 24.0001C46.001 24.0001 46.2781 23.928 46.5241 23.7907" fill="#FDE068"/>
<path d="M54.4136 19.3152L52.1575 5.42204C52.1535 5.32765 52.1216 5.23657 52.0658 5.16031C52.01 5.08406 51.9329 5.02607 51.8442 4.99367C51.7554 4.96128 51.6591 4.95593 51.5673 4.97833C51.4755 5.00072 51.3924 5.04983 51.3286 5.11945L37.0857 19.3452L44.9126 23.7168C45.1567 23.853 45.4315 23.9244 45.711 23.9244C45.9906 23.9244 46.2654 23.853 46.5095 23.7168L54.4136 19.3152Z" fill="#FCCA3F"/>
</svg>
