<svg width="130" height="24" viewBox="0 0 130 24" fill="none" xmlns="http://www.w3.org/2000/svg">
<path d="M0 20.9054C0 22.6147 1.38553 24 3.09459 24H20.9053C22.6147 24 24 22.6145 24 20.9054V3.09469C24 1.38534 22.6145 0 20.9054 0H3.09469C1.38534 0 0 1.38553 0 3.09459V20.9053V20.9054Z" fill="#563D7C"/>
<path d="M9.95224 10.6161V7.21734H12.9439C13.2289 7.21734 13.5036 7.24106 13.7681 7.28859C14.0327 7.33603 14.2668 7.42078 14.4703 7.54294C14.6738 7.66509 14.8366 7.83469 14.9588 8.05172C15.0808 8.26884 15.142 8.547 15.142 8.88609C15.142 9.49669 14.9588 9.93769 14.5924 10.209C14.2261 10.4804 13.758 10.6161 13.1881 10.6161H9.95224ZM6.75696 4.73438V19.2656H13.7987C14.45 19.2656 15.0843 19.1843 15.7016 19.0214C16.319 18.8586 16.8685 18.6076 17.3501 18.2684C17.8317 17.9292 18.2151 17.4916 18.5 16.9557C18.785 16.4197 18.9274 15.7854 18.9274 15.0528C18.9274 14.1437 18.7069 13.367 18.266 12.7225C17.825 12.078 17.1567 11.6269 16.2612 11.3691C16.9125 11.0571 17.4044 10.6567 17.7369 10.1683C18.0692 9.67987 18.2354 9.06938 18.2354 8.33663C18.2354 7.65825 18.1235 7.08844 17.8996 6.62709C17.6757 6.16584 17.3603 5.79609 16.9532 5.51794C16.5462 5.23978 16.0578 5.03962 15.4879 4.91756C14.9181 4.79541 14.2871 4.73438 13.5952 4.73438H6.75696ZM9.95224 16.7827V12.7937H13.4323C14.1243 12.7937 14.6806 12.9531 15.1013 13.272C15.5218 13.5908 15.7322 14.1233 15.7322 14.8696C15.7322 15.2496 15.6677 15.5616 15.5388 15.8058C15.4099 16.05 15.2369 16.2434 15.0198 16.3858C14.8028 16.5283 14.5517 16.63 14.2668 16.6912C13.9818 16.7521 13.6834 16.7827 13.3713 16.7827H9.95224Z" fill="white"/>
<path d="M86.6416 24C86.3178 24.0001 85.9997 23.915 85.7193 23.7531L82.7844 22.0157C82.3464 21.7705 82.5598 21.684 82.7047 21.6334C83.1705 21.4895 83.6165 21.2879 84.0324 21.0334C84.0672 21.0173 84.1056 21.0103 84.1438 21.0132C84.182 21.016 84.2189 21.0286 84.251 21.0497L86.5062 22.3894C86.5481 22.4116 86.5949 22.4232 86.6424 22.4232C86.6899 22.4232 86.7367 22.4116 86.7787 22.3894L95.5731 17.3133C95.6143 17.2887 95.6483 17.2538 95.6719 17.212C95.6955 17.1702 95.7078 17.123 95.7077 17.075V6.92119C95.7077 6.87246 95.6952 6.82454 95.6713 6.78205C95.6475 6.73956 95.6131 6.70394 95.5714 6.67862L86.777 1.60683C86.7355 1.58348 86.6887 1.57121 86.6412 1.57121C86.5936 1.57121 86.5468 1.58348 86.5053 1.60683L77.716 6.68033C77.6741 6.70512 77.6393 6.74033 77.615 6.78252C77.5906 6.82472 77.5776 6.87249 77.5772 6.92119V17.0708C77.5773 17.1186 77.5901 17.1656 77.6144 17.2069C77.6386 17.2481 77.6734 17.2822 77.7152 17.3056L80.1272 18.6976C81.4344 19.3508 82.2349 18.5811 82.2349 17.8079V7.78692C82.2349 7.71872 82.262 7.65331 82.3103 7.60509C82.3585 7.55686 82.4239 7.52977 82.4921 7.52977H83.6064C83.6746 7.52977 83.74 7.55686 83.7882 7.60509C83.8365 7.65331 83.8635 7.71872 83.8635 7.78692V17.8088C83.8635 19.5531 82.9138 20.5517 81.2595 20.5517C80.5458 20.5641 79.8433 20.3732 79.2341 20.0014L76.9223 18.6754C76.6417 18.5119 76.4088 18.2777 76.247 17.9962C76.0851 17.7146 76 17.3955 76 17.0708V6.92119C75.9992 6.59593 76.084 6.27617 76.2459 5.99406C76.4078 5.71194 76.6411 5.47741 76.9223 5.31403L85.7176 0.236241C86.0009 0.08124 86.3186 0 86.6416 0C86.9645 0 87.2823 0.08124 87.5656 0.236241L96.36 5.31403C96.6406 5.47714 96.8735 5.71099 97.0355 5.99225C97.1975 6.27351 97.2829 6.59233 97.2832 6.9169V17.0708C97.2827 17.3955 97.1972 17.7145 97.0353 17.996C96.8733 18.2775 96.6405 18.5117 96.36 18.6754L87.5656 23.7531C87.2846 23.9152 86.9659 24.0004 86.6416 24Z" fill="#83CD29"/>
<path d="M84.9736 13.6739C84.9736 13.6057 85.0007 13.5403 85.0489 13.492C85.0972 13.4438 85.1626 13.4167 85.2308 13.4167H86.3682C86.429 13.4169 86.4877 13.4386 86.534 13.478C86.5803 13.5174 86.6112 13.5719 86.6211 13.6319C86.7925 14.7899 87.3068 15.3736 89.6323 15.3736C91.4846 15.3736 92.274 14.9545 92.274 13.9713C92.274 13.4047 92.0503 12.9839 89.1711 12.7019C86.7642 12.4636 85.2762 11.9304 85.2762 10.007C85.2762 8.23266 86.7719 7.17407 89.2791 7.17407C92.0966 7.17407 93.4912 8.15209 93.6678 10.2504C93.6705 10.2854 93.6659 10.3206 93.6545 10.3539C93.6431 10.3871 93.6249 10.4176 93.6012 10.4436C93.5775 10.4695 93.5488 10.4903 93.5167 10.5047C93.4847 10.5191 93.45 10.5268 93.4149 10.5273H92.2697C92.2123 10.5265 92.1568 10.5064 92.112 10.4704C92.0673 10.4344 92.0359 10.3844 92.0229 10.3284C91.7494 9.11039 91.08 8.72124 89.28 8.72124C87.2571 8.72124 87.0222 9.42582 87.0222 9.95383C87.0222 10.5933 87.3 10.7801 90.0308 11.141C92.7335 11.4984 94.0175 12.0041 94.0175 13.9036C94.0175 15.8202 92.4197 16.9174 89.6331 16.9174C85.7802 16.9225 84.9736 15.1559 84.9736 13.6739Z" fill="#83CD29"/>
<path d="M63.0065 18.4852C61.5065 19.267 53.736 22.462 52.0817 23.3244C50.4274 24.187 49.5084 24.1786 48.2015 23.5539C46.8947 22.9292 38.6256 19.5889 37.1359 18.8769C36.3915 18.5212 36 18.2208 36 17.9371V15.096C36 15.096 46.7655 12.7524 48.5035 12.1289C50.2413 11.5053 50.8443 11.4828 52.3233 12.0245C53.8024 12.5665 62.6461 14.1621 64.1078 14.6974L64.1071 17.4983C64.1073 17.7792 63.7701 18.0873 63.0065 18.4852Z" fill="#912626"/>
<path d="M63.006 15.6609C61.506 16.4425 53.7358 19.6375 52.0815 20.4999C50.4273 21.3625 49.5083 21.3541 48.2015 20.7293C46.8946 20.105 38.6257 16.7643 37.1363 16.0527C35.6468 15.3407 35.6156 14.8506 37.0787 14.2777C38.5419 13.7046 46.7654 10.4782 48.5035 9.85469C50.2414 9.23138 50.8443 9.20865 52.3232 9.75061C53.8023 10.2923 61.5262 13.3667 62.9877 13.902C64.4498 14.4379 64.5059 14.8792 63.006 15.6609Z" fill="#C6302B"/>
<path d="M63.0065 13.8881C61.5065 14.67 53.736 17.8649 52.0817 18.7276C50.4274 19.5899 49.5084 19.5815 48.2015 18.9568C46.8946 18.3324 38.6256 14.9918 37.1359 14.2798C36.3915 13.9241 36 13.6241 36 13.3403V10.4989C36 10.4989 46.7655 8.15538 48.5035 7.53185C50.2413 6.90832 50.8443 6.8857 52.3233 7.42754C53.8026 7.96938 62.6462 9.56461 64.1078 10.1001L64.1071 12.9013C64.1073 13.1821 63.7701 13.4901 63.0065 13.8881Z" fill="#912626"/>
<path d="M63.006 11.0638C61.506 11.8456 53.7358 15.0404 52.0815 15.9031C50.4273 16.7654 49.5083 16.757 48.2015 16.1322C46.8946 15.5079 38.6257 12.1673 37.1363 11.4556C35.6468 10.7438 35.6156 10.2536 37.0787 9.68051C38.5419 9.1077 46.7655 5.88112 48.5035 5.2577C50.2414 4.63428 50.8443 4.61166 52.3232 5.1535C53.8023 5.69524 61.5262 8.76942 62.9877 9.30489C64.4498 9.8407 64.5059 10.2821 63.006 11.0638Z" fill="#C6302B"/>
<path d="M63.0065 9.12061C61.5065 9.90236 53.736 13.0974 52.0817 13.9602C50.4274 14.8225 49.5084 14.8141 48.2015 14.1893C46.8946 13.5649 38.6256 10.2243 37.1359 9.51259C36.3915 9.15652 36 8.85644 36 8.57295V5.73143C36 5.73143 46.7655 3.38805 48.5035 2.76463C50.2413 2.14099 50.8443 2.11859 52.3233 2.66032C53.8026 3.20217 62.6462 4.79739 64.1078 5.33287L64.1071 8.13399C64.1073 8.41452 63.7701 8.7226 63.0065 9.12061Z" fill="#912626"/>
<path d="M63.006 6.29636C61.5061 7.07811 53.7358 10.2732 52.0815 11.1355C50.4274 11.9979 49.5084 11.9894 48.2016 11.365C46.8948 10.7402 38.6258 7.39981 37.1364 6.688C35.6468 5.97631 35.6158 5.48607 37.0788 4.91304C38.5419 4.34013 46.7655 1.11399 48.5036 0.490347C50.2415 -0.133185 50.8444 -0.155583 52.3233 0.38626C53.8024 0.928104 61.5263 4.00228 62.9878 4.53776C64.4498 5.07312 64.506 5.51461 63.006 6.29636Z" fill="#C6302B"/>
<path d="M53.4886 3.53243L51.072 3.78332L50.531 5.08506L49.6573 3.63246L46.8668 3.38168L48.949 2.63079L48.3243 1.47815L50.2737 2.24057L52.1115 1.63889L51.6147 2.83073L53.4886 3.53243Z" fill="white"/>
<path d="M50.3868 9.84771L45.8767 7.97711L52.3393 6.98511L50.3868 9.84771Z" fill="white"/>
<path d="M44.1339 4.2561C46.0416 4.2561 47.5881 4.85559 47.5881 5.59496C47.5881 6.33454 46.0416 6.93392 44.1339 6.93392C42.2262 6.93392 40.6797 6.33443 40.6797 5.59496C40.6797 4.85559 42.2262 4.2561 44.1339 4.2561Z" fill="white"/>
<path d="M56.3446 3.88829L60.1695 5.39975L56.3479 6.90977L56.3446 3.88818" fill="#621B1C"/>
<path d="M52.1132 5.56215L56.3447 3.88831L56.348 6.90978L55.9331 7.07206L52.1132 5.56215Z" fill="#9A2928"/>
<path d="M129.217 14.3765C129.077 13.9528 128.711 13.6576 128.237 13.5868C128.013 13.5534 127.757 13.5676 127.454 13.6301C126.926 13.739 126.535 13.7805 126.249 13.7885C127.328 11.9668 128.205 9.88951 128.71 7.93404C129.527 4.77209 129.091 3.33163 128.581 2.68008C127.231 0.955496 125.262 0.0290344 122.886 0.000686341C121.619 -0.0148094 120.506 0.235401 119.926 0.415334C119.386 0.319989 118.805 0.266757 118.195 0.256913C117.052 0.238682 116.043 0.487799 115.18 0.999796C114.702 0.838276 113.936 0.61058 113.05 0.465284C110.968 0.123467 109.29 0.389811 108.063 1.25693C106.577 2.30681 105.887 4.13093 106.015 6.67861C106.055 7.48749 106.508 9.94857 107.22 12.2826C107.63 13.6242 108.066 14.7382 108.518 15.5941C109.159 16.8078 109.844 17.5225 110.613 17.7792C111.045 17.9229 111.828 18.0235 112.652 17.3371C112.757 17.4636 112.896 17.5893 113.081 17.7061C113.316 17.8542 113.603 17.9753 113.89 18.047C114.924 18.3054 115.892 18.2408 116.718 17.8786C116.723 18.0255 116.727 18.1659 116.73 18.2871C116.736 18.4837 116.741 18.6765 116.749 18.8568C116.797 20.0758 116.88 21.0237 117.126 21.6869C117.14 21.7234 117.158 21.779 117.177 21.838C117.3 22.2133 117.505 22.8417 118.026 23.3339C118.566 23.8437 119.219 24 119.818 24C120.118 24 120.404 23.9606 120.655 23.9068C121.55 23.715 122.567 23.4227 123.302 22.3756C123.998 21.3857 124.336 19.8947 124.397 17.5455C124.405 17.479 124.412 17.4156 124.419 17.3552L124.434 17.231L124.597 17.2454L124.64 17.2482C125.551 17.2898 126.666 17.0965 127.351 16.7784C127.892 16.5274 129.625 15.6122 129.217 14.3765Z" fill="black"/>
<path d="M127.658 14.6169C124.947 15.1761 124.761 14.2583 124.761 14.2583C127.623 10.0113 128.82 4.62032 127.787 3.30091C124.97 -0.2982 120.094 1.40396 120.013 1.44808L119.987 1.45282C119.451 1.34161 118.852 1.27544 118.178 1.26441C116.951 1.24435 116.021 1.58599 115.315 2.12141C115.315 2.12141 106.616 -1.46211 107.021 6.6283C107.107 8.34941 109.488 19.6514 112.328 16.2376C113.366 14.9893 114.369 13.9339 114.369 13.9339C114.867 14.2648 115.463 14.4336 116.088 14.373L116.137 14.3318C116.121 14.4867 116.128 14.6383 116.156 14.8178C115.424 15.6351 115.639 15.7786 114.177 16.0797C112.697 16.3847 113.566 16.9276 114.134 17.0696C114.822 17.2416 116.414 17.4853 117.49 15.9796L117.447 16.1514C117.733 16.381 117.935 17.6447 117.901 18.7904C117.867 19.936 117.845 20.7226 118.07 21.3369C118.296 21.9513 118.521 23.3336 120.444 22.9217C122.05 22.5774 122.883 21.6853 122.999 20.1972C123.081 19.1393 123.267 19.2957 123.279 18.3498L123.428 17.9021C123.6 16.468 123.455 16.0053 124.445 16.2205L124.685 16.2417C125.414 16.2747 126.367 16.1244 126.927 15.8644C128.132 15.3053 128.846 14.3716 127.658 14.6169H127.658Z" fill="#336791"/>
<path d="M115.824 7.39787C115.58 7.36387 115.359 7.39531 115.247 7.48009C115.184 7.52776 115.164 7.583 115.159 7.62101C115.145 7.72173 115.216 7.83311 115.259 7.89054C115.382 8.05315 115.561 8.1649 115.738 8.18952C115.764 8.19316 115.79 8.1948 115.815 8.1948C116.111 8.1948 116.38 7.96446 116.403 7.79447C116.433 7.58154 116.124 7.43961 115.824 7.39796" fill="white"/>
<path d="M123.917 7.40464C123.894 7.23774 123.597 7.19016 123.315 7.22936C123.033 7.26855 122.76 7.39562 122.783 7.56288C122.801 7.69295 123.036 7.915 123.314 7.915C123.338 7.915 123.362 7.91345 123.385 7.91007C123.571 7.88437 123.707 7.76651 123.772 7.6986C123.87 7.59505 123.927 7.47966 123.917 7.40464Z" fill="white"/>
<path d="M128.56 14.5533C128.457 14.2407 128.124 14.1402 127.572 14.2543C125.93 14.593 125.343 14.3584 125.15 14.2163C126.425 12.2729 127.475 9.92379 128.041 7.73205C128.309 6.69384 128.457 5.72964 128.469 4.94373C128.483 4.08117 128.336 3.4473 128.033 3.06009C126.811 1.49913 125.018 0.661812 122.848 0.638841C121.356 0.62207 120.095 1.0039 119.851 1.11128C119.336 0.983302 118.775 0.90473 118.164 0.894703C117.044 0.876564 116.076 1.14473 115.275 1.69137C114.926 1.56175 114.027 1.25284 112.926 1.07555C111.024 0.769279 109.512 1.00135 108.433 1.76565C107.146 2.67771 106.551 4.30804 106.666 6.61126C106.705 7.38613 107.147 9.76992 107.843 12.0528C108.761 15.0575 109.758 16.7585 110.807 17.1084C110.929 17.1493 111.071 17.178 111.227 17.178C111.61 17.178 112.079 17.0055 112.567 16.4187C113.162 15.7045 113.778 15.0076 114.414 14.3289C114.826 14.5503 115.279 14.6739 115.742 14.6863C115.743 14.6984 115.745 14.7105 115.746 14.7225C115.666 14.8176 115.588 14.9141 115.511 15.0119C115.19 15.4195 115.124 15.5043 114.09 15.7171C113.796 15.7778 113.016 15.9387 113.004 16.4859C112.992 17.0839 113.927 17.335 114.033 17.3616C114.405 17.4546 114.763 17.5005 115.104 17.5005C115.934 17.5005 116.664 17.2277 117.247 16.7001C117.229 18.8317 117.318 20.9322 117.574 21.5722C117.784 22.0961 118.296 23.3765 119.913 23.3764C120.151 23.3764 120.412 23.3488 120.699 23.2872C122.388 22.9253 123.121 22.1792 123.404 20.5342C123.556 19.655 123.817 17.5557 123.939 16.4296C124.198 16.5103 124.53 16.5472 124.89 16.5471C125.641 16.5471 126.506 16.3877 127.049 16.1357C127.659 15.8524 128.76 15.1572 128.56 14.5533ZM124.54 6.94396C124.535 7.27639 124.489 7.57819 124.44 7.89321C124.388 8.23202 124.334 8.58231 124.321 9.00753C124.307 9.42136 124.359 9.85159 124.409 10.2677C124.51 11.1081 124.613 11.9733 124.212 12.827C124.146 12.709 124.086 12.5869 124.035 12.4616C123.985 12.3408 123.876 12.1466 123.726 11.8779C123.143 10.8318 121.777 8.38223 122.476 7.38267C122.685 7.08515 123.213 6.77925 124.54 6.94396ZM122.932 1.31199C124.876 1.35493 126.415 2.0824 127.504 3.4741C128.339 4.54158 127.419 9.39875 124.757 13.5891C124.73 13.555 124.703 13.5211 124.676 13.4873L124.642 13.4451C125.33 12.3088 125.196 11.1844 125.076 10.1876C125.027 9.77849 124.98 9.3921 124.992 9.02913C125.004 8.64448 125.055 8.31451 125.104 7.99548C125.165 7.60234 125.226 7.19554 125.209 6.71599C125.222 6.66567 125.227 6.60624 125.22 6.53569C125.177 6.07583 124.652 4.69954 123.582 3.45387C122.997 2.77251 122.143 2.01003 120.977 1.49575C121.479 1.39184 122.164 1.29495 122.932 1.31199ZM112.05 15.9892C111.513 16.6358 111.141 16.5118 111.019 16.4712C110.223 16.2057 109.3 14.5238 108.486 11.8567C107.782 9.54897 107.37 7.22835 107.337 6.57762C107.234 4.51961 107.733 3.08534 108.82 2.31457C110.589 1.06032 113.497 1.81105 114.665 2.19179C114.648 2.20838 114.631 2.22387 114.614 2.24073C112.697 4.17715 112.742 7.48558 112.747 7.68784C112.747 7.76587 112.753 7.87634 112.762 8.02829C112.795 8.58477 112.857 9.62043 112.693 10.7933C112.54 11.8832 112.876 12.9499 113.614 13.7201C113.69 13.7989 113.77 13.874 113.853 13.945C113.524 14.2969 112.81 15.0749 112.05 15.9892ZM114.099 13.2553C113.505 12.6345 113.234 11.7711 113.358 10.8863C113.531 9.64732 113.467 8.56827 113.433 7.98855C113.428 7.90743 113.424 7.83633 113.421 7.78027C113.702 7.53188 115 6.8364 115.925 7.04851C116.348 7.14522 116.605 7.43289 116.712 7.92766C117.266 10.4893 116.785 11.5569 116.399 12.4149C116.32 12.5917 116.245 12.7588 116.18 12.9316L116.131 13.0652C116.005 13.403 115.887 13.7171 115.815 14.0154C115.182 14.0136 114.567 13.7434 114.099 13.2552V13.2553ZM114.196 16.7099C114.012 16.6638 113.846 16.5837 113.748 16.5172C113.83 16.4789 113.975 16.4268 114.226 16.375C115.441 16.1248 115.629 15.9482 116.039 15.4276C116.133 15.3082 116.24 15.1729 116.387 15.0081L116.387 15.0079C116.607 14.7618 116.708 14.8036 116.89 14.8792C117.038 14.9403 117.182 15.1255 117.24 15.3293C117.268 15.4256 117.299 15.6083 117.197 15.7504C116.341 16.9496 115.093 16.9342 114.196 16.7099ZM120.559 22.6304C119.072 22.949 118.545 22.1902 118.198 21.3227C117.974 20.7627 117.864 18.2372 117.942 15.4483C117.943 15.4112 117.938 15.3754 117.927 15.3416C117.918 15.275 117.904 15.2092 117.886 15.1446C117.77 14.7388 117.487 14.3993 117.147 14.2586C117.012 14.2027 116.765 14.1002 116.467 14.1763C116.531 13.9148 116.641 13.6196 116.76 13.2999L116.81 13.1655C116.866 13.0139 116.937 12.8569 117.012 12.6906C117.416 11.7929 117.969 10.5634 117.369 7.78574C117.144 6.74534 116.392 6.23726 115.254 6.3553C114.571 6.42595 113.946 6.7014 113.635 6.85937C113.568 6.89328 113.506 6.92609 113.449 6.95799C113.536 5.90976 113.865 3.95073 115.094 2.71126C115.867 1.931 116.898 1.54561 118.153 1.5664C120.627 1.60687 122.214 2.87642 123.109 3.93442C123.88 4.84602 124.298 5.76437 124.465 6.25969C123.211 6.13216 122.358 6.37964 121.926 6.99765C120.986 8.34195 122.441 10.9511 123.14 12.205C123.268 12.4348 123.379 12.6334 123.413 12.7178C123.641 13.2697 123.936 13.6381 124.151 13.907C124.217 13.9894 124.281 14.0693 124.33 14.1392C123.95 14.2486 123.268 14.5016 123.33 15.7659C123.28 16.4004 122.924 19.3706 122.742 20.42C122.503 21.8064 121.993 22.3228 120.559 22.6305V22.6304ZM126.767 15.5264C126.378 15.7066 125.728 15.8418 125.111 15.8709C124.429 15.9028 124.082 15.7945 124.001 15.7278C123.962 14.9399 124.255 14.8576 124.566 14.7705C124.615 14.7568 124.662 14.7434 124.708 14.7274C124.737 14.7506 124.768 14.7737 124.802 14.7963C125.35 15.158 126.328 15.197 127.708 14.9121L127.723 14.9091C127.537 15.0831 127.218 15.3167 126.767 15.5264Z" fill="white"/>
</svg>
