<svg width="127" height="24" viewBox="0 0 127 24" fill="none" xmlns="http://www.w3.org/2000/svg">
<path d="M38 20.9054C38 22.6147 39.3855 24 41.0946 24H58.9053C60.6147 24 62 22.6145 62 20.9054V3.09469C62 1.38534 60.6145 0 58.9054 0H41.0947C39.3853 0 38 1.38553 38 3.09459V20.9053V20.9054Z" fill="#563D7C"/>
<path d="M47.9522 10.6161V7.21734H50.9439C51.2289 7.21734 51.5036 7.24106 51.7681 7.28859C52.0327 7.33603 52.2668 7.42078 52.4703 7.54294C52.6738 7.66509 52.8366 7.83469 52.9588 8.05172C53.0808 8.26884 53.142 8.547 53.142 8.88609C53.142 9.49669 52.9588 9.93769 52.5924 10.209C52.2261 10.4804 51.758 10.6161 51.1881 10.6161H47.9522ZM44.757 4.73438V19.2656H51.7987C52.45 19.2656 53.0843 19.1843 53.7016 19.0214C54.319 18.8586 54.8685 18.6076 55.3501 18.2684C55.8317 17.9292 56.2151 17.4916 56.5 16.9557C56.785 16.4197 56.9274 15.7854 56.9274 15.0528C56.9274 14.1437 56.7069 13.367 56.266 12.7225C55.825 12.078 55.1567 11.6269 54.2612 11.3691C54.9125 11.0571 55.4044 10.6567 55.7369 10.1683C56.0692 9.67987 56.2354 9.06938 56.2354 8.33663C56.2354 7.65825 56.1235 7.08844 55.8996 6.62709C55.6757 6.16584 55.3603 5.79609 54.9532 5.51794C54.5462 5.23978 54.0578 5.03962 53.4879 4.91756C52.9181 4.79541 52.2871 4.73438 51.5952 4.73438H44.757ZM47.9522 16.7827V12.7937H51.4323C52.1243 12.7937 52.6806 12.9531 53.1013 13.272C53.5218 13.5908 53.7322 14.1233 53.7322 14.8696C53.7322 15.2496 53.6677 15.5616 53.5388 15.8058C53.4099 16.05 53.2369 16.2434 53.0198 16.3858C52.8028 16.5283 52.5517 16.63 52.2668 16.6912C51.9818 16.7521 51.6834 16.7827 51.3713 16.7827H47.9522Z" fill="white"/>
<path d="M115.642 24C115.318 24.0001 115 23.915 114.719 23.7531L111.784 22.0157C111.346 21.7705 111.56 21.684 111.705 21.6334C112.171 21.4895 112.617 21.2879 113.032 21.0334C113.067 21.0173 113.106 21.0103 113.144 21.0132C113.182 21.016 113.219 21.0286 113.251 21.0497L115.506 22.3894C115.548 22.4116 115.595 22.4232 115.642 22.4232C115.69 22.4232 115.737 22.4116 115.779 22.3894L124.573 17.3133C124.614 17.2887 124.648 17.2538 124.672 17.212C124.696 17.1702 124.708 17.123 124.708 17.075V6.92119C124.708 6.87246 124.695 6.82454 124.671 6.78205C124.647 6.73956 124.613 6.70394 124.571 6.67862L115.777 1.60683C115.736 1.58348 115.689 1.57121 115.641 1.57121C115.594 1.57121 115.547 1.58348 115.505 1.60683L106.716 6.68033C106.674 6.70512 106.639 6.74033 106.615 6.78252C106.591 6.82472 106.578 6.87249 106.577 6.92119V17.0708C106.577 17.1186 106.59 17.1656 106.614 17.2069C106.639 17.2481 106.673 17.2822 106.715 17.3056L109.127 18.6976C110.434 19.3508 111.235 18.5811 111.235 17.8079V7.78692C111.235 7.71872 111.262 7.65331 111.31 7.60509C111.358 7.55686 111.424 7.52977 111.492 7.52977H112.606C112.675 7.52977 112.74 7.55686 112.788 7.60509C112.836 7.65331 112.864 7.71872 112.864 7.78692V17.8088C112.864 19.5531 111.914 20.5517 110.26 20.5517C109.546 20.5641 108.843 20.3732 108.234 20.0014L105.922 18.6754C105.642 18.5119 105.409 18.2777 105.247 17.9962C105.085 17.7146 105 17.3955 105 17.0708V6.92119C104.999 6.59593 105.084 6.27617 105.246 5.99406C105.408 5.71194 105.641 5.47741 105.922 5.31403L114.718 0.236241C115.001 0.08124 115.319 0 115.642 0C115.965 0 116.282 0.08124 116.566 0.236241L125.36 5.31403C125.641 5.47714 125.874 5.71099 126.036 5.99225C126.198 6.27351 126.283 6.59233 126.283 6.9169V17.0708C126.283 17.3955 126.197 17.7145 126.035 17.996C125.873 18.2775 125.641 18.5117 125.36 18.6754L116.566 23.7531C116.285 23.9152 115.966 24.0004 115.642 24Z" fill="#83CD29"/>
<path d="M113.974 13.6739C113.974 13.6057 114.001 13.5403 114.049 13.492C114.097 13.4438 114.163 13.4167 114.231 13.4167H115.368C115.429 13.4169 115.488 13.4386 115.534 13.478C115.58 13.5174 115.611 13.5719 115.621 13.6319C115.792 14.7899 116.307 15.3736 118.632 15.3736C120.485 15.3736 121.274 14.9545 121.274 13.9713C121.274 13.4047 121.05 12.9839 118.171 12.7019C115.764 12.4636 114.276 11.9304 114.276 10.007C114.276 8.23266 115.772 7.17407 118.279 7.17407C121.097 7.17407 122.491 8.15209 122.668 10.2504C122.67 10.2854 122.666 10.3206 122.654 10.3539C122.643 10.3871 122.625 10.4176 122.601 10.4436C122.577 10.4695 122.549 10.4903 122.517 10.5047C122.485 10.5191 122.45 10.5268 122.415 10.5273H121.27C121.212 10.5265 121.157 10.5064 121.112 10.4704C121.067 10.4344 121.036 10.3844 121.023 10.3284C120.749 9.11039 120.08 8.72124 118.28 8.72124C116.257 8.72124 116.022 9.42582 116.022 9.95383C116.022 10.5933 116.3 10.7801 119.031 11.141C121.733 11.4984 123.017 12.0041 123.017 13.9036C123.017 15.8202 121.42 16.9174 118.633 16.9174C114.78 16.9225 113.974 15.1559 113.974 13.6739Z" fill="#83CD29"/>
<path d="M75 19.3718L75.1457 19.1686L82.0203 6.1275L82.0349 5.98949L79.0047 0.297828C78.9493 0.193747 78.8625 0.109744 78.7566 0.0577021C78.6508 0.00566045 78.5313 -0.0117843 78.415 0.00783565C78.2987 0.0274556 78.1915 0.083147 78.1086 0.167031C78.0257 0.250915 77.9712 0.358744 77.953 0.475264L75 19.3718Z" fill="#FFC24A"/>
<path d="M75.0857 19.2175L75.1954 19.0032L81.9988 6.09753L78.9764 0.383576C78.9266 0.284205 78.8459 0.20366 78.7464 0.154006C78.647 0.104352 78.5341 0.0882632 78.4247 0.10815C78.3153 0.128036 78.2153 0.182828 78.1397 0.264315C78.0641 0.345803 78.0169 0.449599 78.0052 0.560154L75.0857 19.2175Z" fill="#FFA712"/>
<path d="M84.2437 10.2943L86.4998 7.9799L84.2429 3.676C84.1932 3.58338 84.1194 3.50596 84.0292 3.45198C83.939 3.39801 83.8358 3.36951 83.7307 3.36951C83.6256 3.36951 83.5225 3.39801 83.4323 3.45198C83.3421 3.50596 83.2682 3.58338 83.2186 3.676L82.0125 5.97496V6.17125L84.2437 10.2943Z" fill="#F4BD62"/>
<path d="M84.2035 10.2L86.397 7.95421L84.2035 3.77118C84.1675 3.68063 84.1062 3.6024 84.0269 3.54593C83.9475 3.48945 83.8535 3.45713 83.7562 3.45288C83.6589 3.44862 83.5624 3.4726 83.4784 3.52193C83.3944 3.57126 83.3265 3.64383 83.2828 3.73089L82.0708 6.07013L82.0348 6.18928L84.2035 10.2Z" fill="#FFA50E"/>
<path d="M75.0016 19.3727L75.0677 19.3059L75.3068 19.209L84.1015 10.4469L84.2129 10.1435L82.0194 5.96216L75.0016 19.3727Z" fill="#F6820C"/>
<path d="M84.525 23.7915L92.4864 19.3522L90.2115 5.35364C90.1952 5.25496 90.152 5.16267 90.0867 5.08693C90.0214 5.01118 89.9364 4.95489 89.8412 4.92425C89.746 4.8936 89.6442 4.88979 89.547 4.91321C89.4497 4.93664 89.3608 4.98641 89.29 5.05705L75 19.3719L82.9143 23.7907C83.1604 23.928 83.4375 24.0001 83.7192 24.0001C84.001 24.0001 84.2781 23.928 84.5241 23.7907" fill="#FDE068"/>
<path d="M92.4136 19.3152L90.1575 5.42204C90.1535 5.32765 90.1216 5.23657 90.0658 5.16031C90.01 5.08406 89.9329 5.02607 89.8442 4.99367C89.7554 4.96128 89.6591 4.95593 89.5673 4.97833C89.4755 5.00072 89.3924 5.04983 89.3286 5.11945L75.0857 19.3452L82.9126 23.7168C83.1567 23.853 83.4315 23.9244 83.711 23.9244C83.9906 23.9244 84.2654 23.853 84.5095 23.7168L92.4136 19.3152Z" fill="#FCCA3F"/>
<path d="M22.1788 7.77888C21.8917 7.68039 21.6022 7.58915 21.3105 7.50524C21.3595 7.30503 21.4046 7.10725 21.4447 6.91295C22.102 3.72221 21.6723 1.15169 20.2046 0.305347C18.7973 -0.506009 16.4959 0.340014 14.1716 2.36282C13.9426 2.56253 13.7186 2.768 13.4999 2.97903C13.3535 2.8387 13.2045 2.7011 13.053 2.56629C10.6171 0.403447 8.17541 -0.508117 6.70928 0.340646C5.30332 1.15453 4.887 3.571 5.47876 6.59494C5.53763 6.89443 5.60411 7.19237 5.67812 7.48848C5.33251 7.58669 4.99901 7.69122 4.67984 7.80249C1.82386 8.79824 0 10.3587 0 11.9773C0 13.649 1.958 15.3258 4.93262 16.3425C5.17378 16.4246 5.41695 16.5006 5.6619 16.5706C5.58234 16.8895 5.51172 17.2106 5.4501 17.5335C4.88594 20.505 5.3265 22.8643 6.72867 23.673C8.17689 24.5082 10.6076 23.6499 12.9743 21.5809C13.1662 21.4127 13.3539 21.2397 13.5372 21.0622C13.774 21.2907 14.0172 21.5125 14.2664 21.7275C16.559 23.7002 18.8232 24.4968 20.2241 23.6859C21.6709 22.8483 22.1412 20.3137 21.5307 17.23C21.4826 16.9884 21.4286 16.7481 21.3689 16.5091C21.5396 16.4585 21.7071 16.4064 21.8705 16.3523C24.9629 15.3278 26.975 13.6713 26.975 11.9773C26.975 10.3528 25.0922 8.7818 22.1788 7.77888ZM21.5081 15.2585C21.3606 15.3073 21.2093 15.3544 21.055 15.4003C20.7136 14.3195 20.2529 13.1703 19.6891 11.9829C20.2271 10.8238 20.6701 9.68926 21.0019 8.61553C21.2779 8.6954 21.5456 8.77959 21.8038 8.86842C24.3 9.72782 25.8226 10.9983 25.8226 11.9773C25.8226 13.02 24.1782 14.3737 21.5081 15.2585ZM20.4002 17.4538C20.6702 18.8173 20.7087 20.0502 20.5298 21.014C20.3693 21.88 20.0462 22.4574 19.6466 22.6887C18.7966 23.1807 16.9786 22.5411 15.018 20.8539C14.7862 20.6541 14.56 20.4478 14.3397 20.2354C15.0999 19.4041 15.8595 18.4378 16.6009 17.3645C17.9049 17.2488 19.1369 17.0595 20.2542 16.8013C20.3092 17.0233 20.3581 17.241 20.4002 17.4538ZM9.19635 22.6036C8.36582 22.8969 7.7043 22.9053 7.30442 22.6747C6.45355 22.184 6.09982 20.2896 6.58231 17.7484C6.63967 17.4482 6.70534 17.1495 6.77925 16.8529C7.88417 17.0974 9.10721 17.2731 10.4143 17.3791C11.1608 18.4294 11.9423 19.3947 12.73 20.2399C12.5626 20.4019 12.3912 20.5597 12.2161 20.7133C11.1694 21.6281 10.1207 22.2772 9.19635 22.6036ZM5.30543 15.2521C3.99008 14.8025 2.90381 14.2182 2.15926 13.5806C1.49016 13.0077 1.15244 12.4388 1.15244 11.9773C1.15244 10.995 2.61678 9.74216 5.05917 8.89065C5.35558 8.78739 5.66579 8.68992 5.9877 8.59846C6.32531 9.69642 6.76808 10.8444 7.30242 12.0053C6.76113 13.1834 6.31203 14.3497 5.97116 15.4606C5.74757 15.3966 5.52559 15.3271 5.30543 15.2521ZM6.60971 6.37355C6.10277 3.7828 6.43943 1.82848 7.28672 1.33798C8.18911 0.815552 10.1846 1.56042 12.2879 3.42801C12.4251 3.55007 12.56 3.67461 12.6927 3.80155C11.9089 4.64315 11.1345 5.60129 10.3947 6.6453C9.12607 6.7629 7.91167 6.95172 6.79516 7.20472C6.72637 6.9293 6.66453 6.65219 6.60971 6.37366V6.37355ZM18.2455 9.24681C17.9818 8.79128 17.7083 8.34149 17.4252 7.89774C18.2859 8.00659 19.1105 8.15105 19.8849 8.32766C19.6524 9.07284 19.3626 9.85185 19.0216 10.6506C18.7722 10.1775 18.5135 9.70951 18.2455 9.24681ZM13.5004 4.62513C14.0319 5.20098 14.5643 5.84385 15.0879 6.54141C14.0257 6.49125 12.9618 6.49103 11.8996 6.54078C12.4238 5.84965 12.9606 5.20762 13.5004 4.62513ZM8.72492 9.25471C8.46027 9.71369 8.20636 10.1788 7.96341 10.6496C7.62791 9.85374 7.34077 9.07115 7.10632 8.31543C7.87595 8.14326 8.69668 8.00248 9.55187 7.89564C9.26562 8.34209 8.9899 8.7952 8.72492 9.2546V9.25471ZM9.57643 16.1409C8.69289 16.0423 7.85983 15.9088 7.09041 15.7412C7.32855 14.972 7.622 14.1728 7.96478 13.3599C8.20869 13.831 8.46366 14.2964 8.72945 14.7556C9.00279 15.2277 9.28581 15.69 9.57643 16.1409ZM13.5323 19.4106C12.986 18.8213 12.4412 18.1694 11.9092 17.4683C12.4258 17.4885 12.9523 17.4988 13.4875 17.4988C14.0373 17.4988 14.5808 17.4865 15.1158 17.4627C14.5905 18.1765 14.0602 18.8293 13.5323 19.4106ZM19.0324 13.3183C19.393 14.1402 19.6969 14.9353 19.9382 15.6913C19.1561 15.8698 18.3117 16.0135 17.4219 16.1203C17.707 15.6683 17.9831 15.2107 18.25 14.7477C18.5214 14.2771 18.7823 13.8005 19.0324 13.3183ZM17.2519 14.1719C16.8432 14.8818 16.4117 15.5781 15.9578 16.2599C15.1356 16.3181 14.3117 16.347 13.4875 16.3466C12.648 16.3466 11.8315 16.3205 11.0452 16.2695C10.5795 15.5893 10.1397 14.8917 9.72668 14.1783H9.72679C9.31576 13.4686 8.93183 12.7436 8.57582 12.0048C8.93092 11.2658 9.31369 10.5404 9.72331 9.83025L9.72321 9.83035C10.1327 9.11996 10.569 8.42538 11.0312 7.74812C11.8334 7.68742 12.656 7.65581 13.4874 7.65581H13.4875C14.3226 7.65581 15.1463 7.68774 15.9483 7.74885C16.4058 8.42511 16.8394 9.1173 17.2481 9.82413C17.659 10.5328 18.0469 11.2546 18.4109 11.9885C18.0506 12.7298 17.664 13.4581 17.2519 14.1719ZM19.629 1.30363C20.5323 1.82458 20.8836 3.92536 20.316 6.68029C20.2798 6.85605 20.2391 7.03507 20.1949 7.21662C19.0756 6.95826 17.8604 6.76616 16.588 6.64678C15.8468 5.59128 15.0788 4.63167 14.3078 3.80092C14.5099 3.60614 14.7167 3.41642 14.9282 3.23192C16.9197 1.49888 18.781 0.814604 19.629 1.30363ZM13.4875 9.5685C14.8178 9.5685 15.8963 10.647 15.8963 11.9773C15.8963 13.3076 14.8178 14.3861 13.4875 14.3861C12.1572 14.3861 11.0787 13.3076 11.0787 11.9773C11.0787 10.647 12.1572 9.5685 13.4875 9.5685Z" fill="#00D8FF"/>
</svg>
