<svg width="274" height="38" viewBox="0 0 274 38" fill="none" xmlns="http://www.w3.org/2000/svg">
<path d="M72.2441 10.625V28H69.3941V20.4H61.2191V28H58.3691V10.625H61.2191V18.075H69.3941V10.625H72.2441ZM88.6211 20.775C88.6211 21.2917 88.5878 21.7583 88.5211 22.175H77.9961C78.0794 23.275 78.4878 24.1583 79.2211 24.825C79.9544 25.4917 80.8544 25.825 81.9211 25.825C83.4544 25.825 84.5378 25.1833 85.1711 23.9H88.2461C87.8294 25.1667 87.0711 26.2083 85.9711 27.025C84.8878 27.825 83.5378 28.225 81.9211 28.225C80.6044 28.225 79.4211 27.9333 78.3711 27.35C77.3378 26.75 76.5211 25.9167 75.9211 24.85C75.3378 23.7667 75.0461 22.5167 75.0461 21.1C75.0461 19.6833 75.3294 18.4417 75.8961 17.375C76.4794 16.2917 77.2878 15.4583 78.3211 14.875C79.3711 14.2917 80.5711 14 81.9211 14C83.2211 14 84.3794 14.2833 85.3961 14.85C86.4128 15.4167 87.2044 16.2167 87.7711 17.25C88.3378 18.2667 88.6211 19.4417 88.6211 20.775ZM85.6461 19.875C85.6294 18.825 85.2544 17.9833 84.5211 17.35C83.7878 16.7167 82.8794 16.4 81.7961 16.4C80.8128 16.4 79.9711 16.7167 79.2711 17.35C78.5711 17.9667 78.1544 18.8083 78.0211 19.875H85.6461ZM103.826 14.225L95.3758 34.475H92.4258L95.2258 27.775L89.8008 14.225H92.9758L96.8508 24.725L100.876 14.225H103.826ZM109.102 24.575L106.077 31.475H104.227L106.002 24.575H109.102ZM120.936 10.625V28H118.086V10.625H120.936ZM125.128 10.625H128.228L125.603 16.575H123.603L125.128 10.625ZM147.407 14C148.491 14 149.457 14.225 150.307 14.675C151.174 15.125 151.849 15.7917 152.332 16.675C152.832 17.5583 153.082 18.625 153.082 19.875V28H150.257V20.3C150.257 19.0667 149.949 18.125 149.332 17.475C148.716 16.8083 147.874 16.475 146.807 16.475C145.741 16.475 144.891 16.8083 144.257 17.475C143.641 18.125 143.332 19.0667 143.332 20.3V28H140.507V20.3C140.507 19.0667 140.199 18.125 139.582 17.475C138.966 16.8083 138.124 16.475 137.057 16.475C135.991 16.475 135.141 16.8083 134.507 17.475C133.891 18.125 133.582 19.0667 133.582 20.3V28H130.732V14.225H133.582V15.8C134.049 15.2333 134.641 14.7917 135.357 14.475C136.074 14.1583 136.841 14 137.657 14C138.757 14 139.741 14.2333 140.607 14.7C141.474 15.1667 142.141 15.8417 142.607 16.725C143.024 15.8917 143.674 15.2333 144.557 14.75C145.441 14.25 146.391 14 147.407 14ZM177.078 10.625V28H174.228V20.4H166.053V28H163.203V10.625H166.053V18.075H174.228V10.625H177.078ZM179.88 21.05C179.88 19.6667 180.163 18.4417 180.73 17.375C181.313 16.3083 182.097 15.4833 183.08 14.9C184.08 14.3 185.18 14 186.38 14C187.463 14 188.405 14.2167 189.205 14.65C190.022 15.0667 190.672 15.5917 191.155 16.225V14.225H194.03V28H191.155V25.95C190.672 26.6 190.013 27.1417 189.18 27.575C188.347 28.0083 187.397 28.225 186.33 28.225C185.147 28.225 184.063 27.925 183.08 27.325C182.097 26.7083 181.313 25.8583 180.73 24.775C180.163 23.675 179.88 22.4333 179.88 21.05ZM191.155 21.1C191.155 20.15 190.955 19.325 190.555 18.625C190.172 17.925 189.663 17.3917 189.03 17.025C188.397 16.6583 187.713 16.475 186.98 16.475C186.247 16.475 185.563 16.6583 184.93 17.025C184.297 17.375 183.78 17.9 183.38 18.6C182.997 19.2833 182.805 20.1 182.805 21.05C182.805 22 182.997 22.8333 183.38 23.55C183.78 24.2667 184.297 24.8167 184.93 25.2C185.58 25.5667 186.263 25.75 186.98 25.75C187.713 25.75 188.397 25.5667 189.03 25.2C189.663 24.8333 190.172 24.3 190.555 23.6C190.955 22.8833 191.155 22.05 191.155 21.1ZM200.623 16.225C201.04 15.525 201.59 14.9833 202.273 14.6C202.973 14.2 203.798 14 204.748 14V16.95H204.023C202.907 16.95 202.057 17.2333 201.473 17.8C200.907 18.3667 200.623 19.35 200.623 20.75V28H197.773V14.225H200.623V16.225ZM212.368 28.225C211.285 28.225 210.31 28.0333 209.443 27.65C208.593 27.25 207.918 26.7167 207.418 26.05C206.918 25.3667 206.651 24.6083 206.618 23.775H209.568C209.618 24.3583 209.893 24.85 210.393 25.25C210.91 25.6333 211.551 25.825 212.318 25.825C213.118 25.825 213.735 25.675 214.168 25.375C214.618 25.0583 214.843 24.6583 214.843 24.175C214.843 23.6583 214.593 23.275 214.093 23.025C213.61 22.775 212.835 22.5 211.768 22.2C210.735 21.9167 209.893 21.6417 209.243 21.375C208.593 21.1083 208.026 20.7 207.543 20.15C207.076 19.6 206.843 18.875 206.843 17.975C206.843 17.2417 207.06 16.575 207.493 15.975C207.926 15.3583 208.543 14.875 209.343 14.525C210.16 14.175 211.093 14 212.143 14C213.71 14 214.968 14.4 215.918 15.2C216.885 15.9833 217.401 17.0583 217.468 18.425H214.618C214.568 17.8083 214.318 17.3167 213.868 16.95C213.418 16.5833 212.81 16.4 212.043 16.4C211.293 16.4 210.718 16.5417 210.318 16.825C209.918 17.1083 209.718 17.4833 209.718 17.95C209.718 18.3167 209.851 18.625 210.118 18.875C210.385 19.125 210.71 19.325 211.093 19.475C211.476 19.6083 212.043 19.7833 212.793 20C213.793 20.2667 214.61 20.5417 215.243 20.825C215.893 21.0917 216.451 21.4917 216.918 22.025C217.385 22.5583 217.626 23.2667 217.643 24.15C217.643 24.9333 217.426 25.6333 216.993 26.25C216.56 26.8667 215.943 27.35 215.143 27.7C214.36 28.05 213.435 28.225 212.368 28.225ZM227.848 14C228.898 14 229.831 14.225 230.648 14.675C231.481 15.125 232.131 15.7917 232.598 16.675C233.081 17.5583 233.323 18.625 233.323 19.875V28H230.498V20.3C230.498 19.0667 230.189 18.125 229.573 17.475C228.956 16.8083 228.114 16.475 227.048 16.475C225.981 16.475 225.131 16.8083 224.498 17.475C223.881 18.125 223.573 19.0667 223.573 20.3V28H220.723V9.5H223.573V15.825C224.056 15.2417 224.664 14.7917 225.398 14.475C226.148 14.1583 226.964 14 227.848 14ZM238.408 12.4C237.891 12.4 237.458 12.225 237.108 11.875C236.758 11.525 236.583 11.0917 236.583 10.575C236.583 10.0583 236.758 9.625 237.108 9.275C237.458 8.925 237.891 8.75 238.408 8.75C238.908 8.75 239.333 8.925 239.683 9.275C240.033 9.625 240.208 10.0583 240.208 10.575C240.208 11.0917 240.033 11.525 239.683 11.875C239.333 12.225 238.908 12.4 238.408 12.4ZM239.808 14.225V28H236.958V14.225H239.808ZM246.875 16.55V24.175C246.875 24.6917 246.991 25.0667 247.225 25.3C247.475 25.5167 247.891 25.625 248.475 25.625H250.225V28H247.975C246.691 28 245.708 27.7 245.025 27.1C244.341 26.5 244 25.525 244 24.175V16.55H242.375V14.225H244V10.8H246.875V14.225H250.225V16.55H246.875ZM259.977 14C261.027 14 261.96 14.225 262.777 14.675C263.61 15.125 264.26 15.7917 264.727 16.675C265.21 17.5583 265.452 18.625 265.452 19.875V28H262.627V20.3C262.627 19.0667 262.318 18.125 261.702 17.475C261.085 16.8083 260.243 16.475 259.177 16.475C258.11 16.475 257.26 16.8083 256.627 17.475C256.01 18.125 255.702 19.0667 255.702 20.3V28H252.852V9.5H255.702V15.825C256.185 15.2417 256.793 14.7917 257.527 14.475C258.277 14.1583 259.093 14 259.977 14ZM270.237 28.175C269.72 28.175 269.287 28 268.937 27.65C268.587 27.3 268.412 26.8667 268.412 26.35C268.412 25.8333 268.587 25.4 268.937 25.05C269.287 24.7 269.72 24.525 270.237 24.525C270.737 24.525 271.162 24.7 271.512 25.05C271.862 25.4 272.037 25.8333 272.037 26.35C272.037 26.8667 271.862 27.3 271.512 27.65C271.162 28 270.737 28.175 270.237 28.175Z" fill="white"/>
<path d="M4.861 10.105C5.801 9.448 7.218 9.574 8.062 10.271L7.094 8.864C6.315 7.753 6.594 6.551 7.706 5.771C8.818 4.994 11.969 7.083 11.969 7.083C11.183 5.961 11.33 4.539 12.452 3.752C13.574 2.968 15.122 3.239 15.908 4.363L26.328 19.083L25 31.958L13.917 27.916L4.25 13.583C3.457 12.454 3.731 10.897 4.861 10.105Z" fill="#EF9645"/>
<path d="M2.69503 18.294C2.69503 18.294 1.56303 16.644 3.21403 15.513C4.86303 14.382 5.99403 16.031 5.99403 16.031L11.245 23.689C11.426 23.387 11.624 23.089 11.845 22.795L4.55703 12.168C4.55703 12.168 3.42603 10.519 5.07603 9.388C6.72503 8.257 7.85603 9.906 7.85603 9.906L14.711 19.903C14.966 19.695 15.227 19.486 15.496 19.281L7.54903 7.69C7.54903 7.69 6.41803 6.041 8.06803 4.91C9.71703 3.779 10.848 5.428 10.848 5.428L18.795 17.017C19.087 16.838 19.376 16.683 19.666 16.519L12.238 5.687C12.238 5.687 11.107 4.038 12.756 2.907C14.405 1.776 15.536 3.425 15.536 3.425L23.39 14.879L24.584 16.621C19.636 20.015 19.165 26.4 21.992 30.523C22.557 31.348 23.382 30.783 23.382 30.783C19.989 25.834 21.025 20.273 25.974 16.88L24.515 9.578C24.515 9.578 23.97 7.654 25.893 7.108C27.817 6.563 28.363 8.487 28.363 8.487L30.048 13.491C30.716 15.475 31.427 17.452 32.368 19.322C35.025 24.602 33.438 31.164 28.428 34.601C22.963 38.348 15.492 36.955 11.744 31.491L2.69503 18.294Z" fill="#FFDC5D"/>
<path d="M12 33C8.00001 33 3.95801 28.958 3.95801 24.958C3.95801 24.405 3.55301 23.958 3.00001 23.958C2.44701 23.958 1.95801 24.405 1.95801 24.958C1.95801 30.958 6.00001 35 12 35C12.553 35 13 34.511 13 33.958C13 33.405 12.553 33 12 33Z" fill="#5DADEC"/>
<path d="M7 34.958C4 34.958 2 32.958 2 29.958C2 29.405 1.553 28.958 1 28.958C0.447 28.958 0 29.405 0 29.958C0 33.958 3 36.958 7 36.958C7.553 36.958 8 36.511 8 35.958C8 35.405 7.553 34.958 7 34.958ZM24 2.958C23.448 2.958 23 3.406 23 3.958C23 4.51 23.448 4.958 24 4.958C28 4.958 32 8.547 32 12.958C32 13.51 32.448 13.958 33 13.958C33.552 13.958 34 13.51 34 12.958C34 7.444 30 2.958 24 2.958Z" fill="#5DADEC"/>
<path d="M29 1C28.448 1 28 1.406 28 1.958C28 2.51 28.448 3 29 3C32 3 33.958 5.225 33.958 7.958C33.958 8.51 34.447 8.958 35 8.958C35.553 8.958 35.958 8.51 35.958 7.958C35.958 4.121 33 1 29 1Z" fill="#5DADEC"/>
</svg>
